<?xml version="1.0" standalone="no"?>
<!DOCTYPE svg PUBLIC "-//W3C//DTD SVG 20010904//EN"
 "http://www.w3.org/TR/2001/REC-SVG-20010904/DTD/svg10.dtd">
<svg version="1.0" xmlns="http://www.w3.org/2000/svg"
 width="624.000000pt" height="624.000000pt" viewBox="0 0 624.000000 624.000000"
 preserveAspectRatio="xMidYMid meet">
<metadata>
Created by potrace 1.14, written by Peter Selinger 2001-2017
</metadata>
<g transform="translate(0.000000,624.000000) scale(0.100000,-0.100000)"
fill="#000000" stroke="none">
<path d="M3110 6220 c0 -20 25 -38 36 -27 8 7 -15 47 -26 47 -6 0 -10 -9 -10
-20z"/>
<path d="M3663 6213 c3 -16 8 -39 11 -53 15 -63 17 -88 7 -94 -6 -4 -5 -18 5
-42 8 -19 13 -38 10 -42 -3 -5 -1 -14 4 -22 6 -10 9 35 9 118 0 89 3 138 11
148 11 12 6 14 -25 14 -35 0 -37 -1 -32 -27z"/>
<path d="M4258 5963 c2 -247 8 -310 27 -292 2 3 7 72 9 154 3 91 9 151 16 153
16 6 12 32 -5 32 -11 0 -15 12 -15 50 0 28 3 50 8 50 4 0 7 29 7 65 0 63 0 65
-25 65 l-25 0 3 -277z"/>
<path d="M4850 6213 c1 -15 1 -32 0 -38 -4 -20 2 -70 11 -87 5 -10 18 -18 29
-18 20 0 36 16 21 22 -5 2 -6 20 -2 43 4 22 7 54 7 70 -1 27 -5 30 -34 33 -31
3 -34 1 -32 -25z"/>
<path d="M5422 6152 c4 -48 10 -123 12 -167 2 -44 5 -80 5 -80 1 0 3 -82 5
-181 2 -100 6 -186 10 -192 3 -6 2 -13 -4 -17 -6 -4 -7 -11 -3 -18 10 -16 13
-150 4 -162 -5 -5 -5 -33 -2 -62 4 -29 3 -59 -2 -68 -5 -10 -4 -21 3 -30 6 -8
7 -16 2 -19 -6 -3 -111 -8 -236 -10 -184 -3 -228 -1 -237 10 -9 11 -15 11 -25
3 -18 -15 -31 15 -15 35 6 7 7 17 3 21 -4 5 -2 5 5 1 7 -4 9 -14 6 -24 -4 -12
-3 -14 4 -7 6 6 14 24 18 42 6 28 3 34 -24 48 -17 8 -31 20 -31 25 0 6 -5 10
-11 10 -6 0 -8 -9 -4 -20 5 -15 3 -18 -9 -14 -12 5 -16 0 -16 -20 0 -14 5 -26
11 -26 6 0 8 -8 5 -17 -6 -17 -5 -17 8 0 20 26 30 20 12 -8 -9 -14 -12 -25 -6
-25 5 0 10 -7 10 -16 0 -9 34 -54 77 -100 54 -61 79 -81 84 -72 7 10 9 10 9
-2 0 -12 13 -15 63 -13 106 3 111 3 116 -6 6 -9 65 -6 81 4 4 3 13 -2 20 -10
9 -11 16 -12 26 -4 34 28 67 -32 64 -117 -2 -80 9 -284 17 -296 3 -7 1 -14 -5
-16 -9 -3 -9 -9 -1 -24 9 -16 7 -23 -12 -36 -20 -14 -21 -16 -5 -28 14 -10 17
-30 18 -116 1 -113 7 -135 92 -348 l46 -115 -2 -500 -3 -500 -42 -3 c-32 -2
-43 -8 -45 -20 -5 -50 -3 -148 4 -153 4 -3 4 -19 -1 -37 -7 -23 -6 -32 2 -32
7 0 4 -7 -5 -14 -19 -14 -26 -42 -8 -31 6 3 10 -3 11 -14 3 -67 0 -89 -11
-113 -10 -21 -10 -31 -1 -41 15 -19 12 -105 -6 -141 -13 -25 -13 -28 -1 -23 9
3 15 -1 15 -9 0 -8 -7 -13 -15 -12 -8 2 -17 -3 -20 -11 -3 -8 0 -11 6 -7 12 7
17 1 26 -37 6 -25 5 -27 -18 -21 -14 3 -27 1 -31 -6 -5 -9 -1 -10 14 -5 27 8
29 -17 3 -42 -17 -17 -17 -19 3 -36 20 -19 20 -19 -2 -14 -13 3 -23 1 -23 -4
0 -5 4 -9 8 -9 11 0 35 -51 28 -57 -5 -5 -82 -6 -228 -3 -37 1 -71 -1 -77 -4
-5 -4 -16 1 -24 9 -9 8 -22 15 -29 15 -10 0 -9 -3 2 -10 12 -8 9 -10 -13 -10
-16 0 -35 7 -43 15 -9 8 -11 15 -5 15 5 0 13 10 17 22 5 16 1 26 -14 38 -15
13 -18 20 -10 28 8 8 9 18 1 34 -14 30 -15 69 -2 84 7 9 5 15 -7 22 -15 8 -15
10 0 15 9 4 16 11 16 17 0 6 -4 8 -10 5 -5 -3 -10 -2 -10 4 0 5 -3 17 -7 27
-5 13 -3 16 10 11 12 -5 17 -1 17 13 0 11 -5 20 -11 20 -8 0 -10 14 -6 40 3
22 1 40 -3 40 -5 0 -9 62 -10 138 -1 75 -3 157 -5 182 -1 25 -3 62 -4 83 l-1
37 -64 0 c-36 0 -68 -4 -71 -10 -6 -10 -8 -545 -3 -653 2 -31 -1 -57 -5 -57
-5 0 -5 -9 -2 -20 4 -11 2 -20 -4 -20 -6 0 -11 -20 -11 -45 0 -29 4 -45 13
-45 8 0 7 -4 -3 -10 -13 -9 -13 -10 0 -10 13 0 13 -2 0 -9 -8 -6 -18 -7 -22
-5 -4 3 -8 2 -8 -3 0 -13 -344 -13 -352 1 -6 8 -11 7 -18 -4 -5 -8 -10 -13
-11 -10 0 3 -2 12 -3 20 -11 55 -16 163 -22 435 -3 171 -9 339 -13 375 -6 65
-6 65 -38 67 -18 1 -35 -2 -38 -7 -2 -4 -5 -158 -4 -341 0 -515 -1 -523 -15
-537 -18 -19 -467 -17 -477 2 0 0 -2 120 -5 266 -5 316 -13 490 -23 490 -4 0
-8 6 -9 13 -9 85 -16 107 -33 107 -13 0 -19 -7 -20 -22 0 -13 -2 -33 -3 -46
-2 -13 0 -25 4 -27 4 -3 4 -22 1 -42 -4 -21 -6 -197 -5 -391 2 -373 4 -359
-43 -367 -10 -1 -17 -8 -16 -14 2 -7 -15 -11 -47 -11 -28 0 -50 -4 -50 -10 0
-6 46 -10 118 -10 64 -1 383 -2 707 -4 325 -2 617 0 650 4 33 4 65 4 70 -1 8
-6 281 -17 459 -18 22 0 43 -6 47 -13 7 -10 9 -10 9 0 0 14 76 17 84 3 8 -12
55 -20 58 -10 2 5 24 9 51 10 36 2 51 -2 61 -16 9 -13 15 -15 20 -6 6 9 11 9
22 0 12 -9 12 -15 2 -27 -11 -13 -10 -14 2 -10 8 3 21 -2 28 -11 11 -14 12
-14 10 4 -2 11 -7 23 -13 27 -5 4 4 12 19 18 31 12 49 5 26 -10 -20 -13 -3
-12 21 0 19 11 28 -3 10 -15 -6 -3 -9 -13 -8 -23 1 -13 9 -18 33 -18 19 0 30
4 27 10 -4 5 1 7 11 3 10 -4 21 -7 26 -7 4 0 6 -9 3 -20 -3 -11 -1 -20 5 -20
13 0 23 38 11 46 -19 11 -8 23 14 15 13 -5 21 -15 19 -26 -2 -10 1 -14 7 -10
8 4 11 665 11 2231 l0 2224 -413 0 -413 0 8 -88z m231 56 c4 -12 1 -28 -5 -36
-10 -11 -13 -10 -20 7 -8 22 -1 51 12 51 4 0 10 -10 13 -22z m47 10 c0 -4 -4
-8 -9 -8 -6 0 -12 4 -15 8 -3 5 1 9 9 9 8 0 15 -4 15 -9z m33 -100 c-2 -27 2
-40 15 -47 16 -9 16 -11 -2 -24 -13 -10 -15 -16 -8 -21 16 -10 15 -43 0 -49
-8 -3 -6 -6 5 -6 19 -1 21 -9 8 -30 -5 -7 -14 -10 -21 -6 -9 6 -9 10 1 17 11
8 11 9 -1 5 -8 -2 -15 -10 -16 -18 0 -8 -5 -27 -12 -42 -17 -41 -15 -46 18
-44 16 1 30 2 30 2 0 0 -4 14 -9 31 -8 28 -6 33 15 43 20 9 25 7 35 -10 8 -16
7 -24 -4 -37 -18 -20 -15 -80 4 -93 11 -7 10 -9 -3 -9 -10 0 -18 -4 -18 -10 0
-5 4 -10 10 -10 6 0 6 -9 0 -24 -8 -21 -5 -25 17 -31 31 -7 49 7 38 32 -11 24
-13 133 -3 133 4 0 8 -13 8 -30 0 -46 30 -35 37 14 2 11 8 25 14 32 6 7 8 18
5 23 -4 5 2 14 11 20 10 5 14 13 10 17 -4 4 3 18 15 31 12 13 18 23 14 23 -4
0 -2 9 4 20 6 11 15 18 20 15 6 -3 7 0 4 8 -3 8 0 18 5 22 6 3 9 10 7 14 -3 4
4 12 15 19 18 12 19 10 13 -30 -4 -24 -10 -47 -15 -52 -15 -16 -10 -36 9 -36
16 -1 16 -1 -1 -11 -9 -5 -21 -7 -27 -4 -5 3 -12 -11 -16 -32 -4 -21 -11 -44
-17 -50 -7 -9 -5 -13 6 -13 9 0 19 5 23 12 9 14 23 -15 23 -47 -1 -11 -3 -14
-6 -7 -2 6 -12 12 -21 12 -20 -1 -66 -85 -56 -102 4 -6 3 -8 -3 -5 -11 7 -29
-25 -36 -63 -2 -14 -6 -31 -8 -39 -2 -7 2 -16 10 -19 10 -3 12 0 8 11 -3 9 -2
19 3 22 6 4 10 19 10 36 0 16 4 29 9 29 14 0 25 -21 15 -29 -5 -3 -10 -16 -11
-29 -2 -19 1 -23 19 -20 33 5 32 -18 -2 -32 -30 -12 -30 -13 -13 -33 17 -19
17 -19 -4 -13 -25 8 -30 -3 -11 -22 9 -9 8 -12 -4 -12 -8 0 -21 -6 -27 -14
-10 -12 -6 -16 21 -22 l33 -8 -30 -7 c-22 -5 -24 -7 -9 -8 12 0 24 -8 28 -16
3 -8 11 -15 18 -14 10 0 10 2 0 6 -9 4 -10 8 -2 18 6 7 10 17 9 21 -3 13 13
48 25 57 7 5 4 13 -9 23 -19 16 -19 16 5 9 37 -11 38 -11 39 -2 3 21 0 26 -14
21 -8 -4 -15 -1 -15 5 0 6 4 11 9 11 5 0 8 20 6 45 -1 38 1 45 17 45 10 0 24
-11 30 -25 10 -21 8 -28 -12 -45 l-23 -20 27 -25 c23 -21 26 -32 23 -66 -2
-22 -10 -45 -18 -51 -11 -7 -11 -11 -1 -15 16 -6 15 -28 -2 -42 -18 -15 -9
-52 10 -44 9 3 14 -2 14 -17 0 -14 -5 -20 -13 -17 -10 4 -13 -2 -9 -19 4 -20
1 -23 -14 -17 -18 7 -18 6 -2 -19 19 -28 11 -42 -16 -32 -11 4 -14 13 -11 25
5 13 1 19 -10 19 -9 0 -14 -4 -11 -9 3 -5 -2 -15 -11 -22 -11 -10 -17 -10 -20
-3 -2 6 -10 20 -18 30 -13 17 -14 18 -15 2 0 -10 5 -18 12 -18 6 0 3 -9 -7
-20 -13 -14 -22 -17 -29 -10 -16 16 -21 12 -22 -15 -1 -15 3 -25 12 -25 8 0
14 -7 14 -15 0 -11 -14 -15 -57 -17 -32 -1 -80 -2 -107 -3 -44 -2 -47 0 -30
12 10 8 28 12 39 9 22 -6 53 8 38 17 -5 3 -24 4 -41 2 -17 -2 -34 0 -37 6 -4
5 5 9 19 9 16 0 26 6 26 14 0 8 6 16 13 19 6 2 8 8 4 13 -5 5 -13 1 -18 -9 -6
-9 -19 -17 -29 -17 -10 0 -22 -4 -25 -10 -7 -11 -45 9 -45 24 0 4 6 4 13 -2
11 -9 13 0 13 46 0 44 -4 60 -20 73 -13 11 -16 18 -8 23 7 4 12 1 12 -8 0 -9
8 -16 18 -15 10 0 12 3 5 6 -7 2 -13 9 -13 15 0 6 7 8 15 4 8 -3 15 -1 15 3 0
5 -7 11 -15 15 -8 3 -15 10 -15 17 0 6 7 8 16 5 9 -3 12 -2 9 5 -4 6 -13 8
-21 5 -8 -3 -14 -1 -14 4 0 6 3 10 8 10 4 0 13 14 21 30 14 32 9 60 -9 60 -6
0 -8 -4 -5 -10 3 -5 2 -10 -4 -10 -6 0 -8 -7 -5 -15 4 -10 0 -15 -12 -15 -15
0 -16 -2 -5 -9 16 -11 6 -51 -14 -51 -10 0 -13 10 -9 37 2 21 9 42 14 47 5 5
3 14 -6 23 -12 12 -12 18 2 44 11 22 12 34 5 43 -6 7 -8 16 -4 19 3 4 -1 7
-11 7 -10 0 -14 5 -11 11 4 6 13 8 21 5 8 -3 14 1 14 9 0 8 -7 15 -15 15 -8 0
-15 5 -15 10 0 6 9 10 20 10 11 0 20 5 20 10 0 6 -6 10 -14 10 -20 0 -24 18
-16 75 4 28 8 44 9 38 2 -18 21 -16 21 1 0 8 6 17 13 19 7 3 4 6 -7 6 -14 1
-17 6 -13 23 4 12 1 28 -6 36 -10 13 -8 14 13 7 21 -7 22 -6 10 7 -8 9 -21 25
-29 36 -8 12 -19 18 -24 15 -6 -3 -7 -1 -3 5 4 7 2 12 -3 12 -6 0 -11 5 -11
10 0 6 9 10 20 10 11 0 19 -3 19 -7 -5 -29 3 -35 16 -13 10 19 11 28 2 39 -10
11 -8 13 9 7 29 -9 41 10 39 62 -1 30 3 42 13 42 8 0 12 6 9 14 -10 24 6 27
18 3 6 -12 10 -39 8 -59z m-69 34 c7 -12 -42 -38 -51 -28 -5 4 1 14 11 22 23
16 33 18 40 6z m177 -24 c1 -7 1 -19 0 -25 -1 -7 3 -13 8 -13 7 0 7 -9 1 -26
-16 -41 -13 -64 8 -57 16 6 16 5 -1 -14 -11 -13 -26 -19 -38 -16 -13 4 -19 0
-19 -11 0 -9 -4 -16 -10 -16 -5 0 -9 5 -7 12 3 18 21 37 29 32 4 -3 7 21 7 53
1 32 2 66 3 76 2 19 17 23 19 5z m189 3 c0 -5 -10 -11 -22 -14 -22 -6 -22 -6
-4 8 23 17 26 18 26 6z m-387 -38 c-23 -23 -60 -28 -42 -6 6 7 8 14 3 14 -5 1
5 4 21 8 38 9 41 7 18 -16z m128 4 c-13 -13 -26 -3 -16 12 3 6 11 8 17 5 6 -4
6 -10 -1 -17z m-162 -149 c-16 -32 -17 -32 -15 -4 0 14 7 26 14 26 10 0 10 -5
1 -22z m226 13 c3 -5 1 -12 -4 -15 -5 -3 -11 1 -15 9 -6 16 9 21 19 6z m188
-18 c-7 -3 -13 -15 -13 -29 0 -17 -4 -22 -15 -18 -8 4 -15 9 -15 13 0 13 42
52 49 45 3 -4 0 -9 -6 -11z m17 -145 c0 -16 -3 -19 -11 -11 -6 6 -8 16 -5 22
11 17 16 13 16 -11z m-50 -18 c0 -5 -7 -10 -16 -10 -8 0 -12 5 -9 10 3 6 10
10 16 10 5 0 9 -4 9 -10z m38 -32 c0 -7 4 -23 7 -35 5 -15 3 -23 -4 -23 -6 0
-11 5 -11 11 0 5 -4 7 -10 4 -13 -8 -13 11 0 36 12 22 16 24 18 7z m-48 -7 c0
-6 -4 -13 -10 -16 -5 -3 -10 1 -10 9 0 9 5 16 10 16 6 0 10 -4 10 -9z m-10
-61 c0 -5 -2 -10 -4 -10 -3 0 -8 5 -11 10 -3 6 -1 10 4 10 6 0 11 -4 11 -10z
m80 -90 c6 -11 7 -20 2 -20 -6 0 -12 9 -15 20 -3 11 -3 20 -1 20 2 0 8 -9 14
-20z m-3 -332 c-3 -8 -6 -5 -6 6 -1 11 2 17 5 13 3 -3 4 -12 1 -19z m-1122 -8
c-3 -5 -10 -10 -16 -10 -5 0 -9 5 -9 10 0 6 7 10 16 10 8 0 12 -4 9 -10z
m1070 -53 c-9 -5 -19 -6 -22 -3 -4 3 -1 6 5 6 7 0 9 7 5 18 -6 15 -5 15 11 3
16 -13 16 -15 1 -24z m-333 -19 c-7 -7 -12 -8 -12 -2 0 14 12 26 19 19 2 -3
-1 -11 -7 -17z m304 -1 c22 4 34 2 34 -6 0 -7 -21 -11 -55 -11 -30 0 -55 4
-55 9 0 13 23 20 34 11 4 -5 24 -6 42 -3z m89 -7 c3 -5 -1 -10 -9 -10 -9 0
-16 5 -16 10 0 6 4 10 9 10 6 0 13 -4 16 -10z m-269 -253 c12 -11 14 -66 4
-72 -6 -3 -10 1 -10 9 0 9 -4 16 -8 16 -4 0 -8 -9 -8 -20 0 -11 6 -20 12 -20
7 0 14 -7 17 -14 4 -10 1 -13 -9 -9 -17 6 -17 3 -4 -31 5 -14 14 -26 19 -26 6
0 8 7 4 16 -3 9 0 20 8 25 21 13 35 11 21 -3 -7 -7 -12 -20 -12 -30 0 -10 -4
-19 -10 -19 -5 -1 -14 -3 -20 -4 -5 -1 -13 -3 -17 -4 -4 0 2 -8 13 -16 17 -13
18 -14 1 -15 -10 0 -20 7 -23 15 -11 28 -24 4 -20 -36 3 -36 16 -69 16 -41 0
7 4 12 10 12 5 0 23 14 40 31 38 40 40 22 3 -23 -47 -56 -73 -72 -73 -43 0 8
-4 15 -10 15 -14 0 -12 -28 3 -33 9 -3 9 -7 -2 -20 -23 -29 -5 -19 40 22 23
22 47 37 52 34 6 -3 3 -11 -6 -18 -10 -7 -17 -19 -17 -28 0 -8 -6 -18 -12 -20
-7 -3 -3 -6 10 -6 12 -1 22 -7 22 -16 0 -9 -10 -15 -22 -16 -17 -1 -19 -2 -5
-6 20 -5 23 -23 5 -24 -7 -1 -2 -4 12 -8 19 -5 24 -13 22 -32 -2 -23 -2 -23
12 -6 11 14 13 41 11 113 -2 57 0 92 6 89 13 -9 11 9 -3 23 -8 8 -8 15 0 25 7
8 9 17 5 21 -8 8 -11 86 -3 81 3 -2 5 23 4 56 -1 63 4 70 26 40 7 -11 18 -17
23 -14 6 3 7 1 3 -6 -4 -6 -12 -9 -17 -6 -5 4 -8 -5 -7 -18 1 -13 7 -24 14
-24 7 0 10 6 7 14 -3 7 0 13 6 13 6 0 12 -8 12 -17 1 -16 2 -16 6 -1 2 9 10
19 18 22 9 3 12 0 8 -10 -3 -8 1 -14 11 -14 10 0 16 8 16 22 0 17 3 19 12 10
9 -9 7 -16 -7 -32 -10 -11 -21 -17 -25 -15 -4 3 -13 -2 -20 -10 -7 -8 -19 -15
-26 -15 -16 0 -19 -16 -4 -25 6 -3 10 -1 10 4 0 6 5 11 11 11 6 0 7 -5 2 -12
-11 -18 -12 -68 -2 -68 5 0 9 -5 9 -10 0 -7 -7 -7 -21 0 -15 9 -18 15 -9 25 8
9 8 15 0 20 -21 13 -30 -8 -28 -60 2 -29 0 -51 -4 -49 -5 3 -8 -1 -8 -9 0 -8
13 -25 30 -38 16 -13 30 -28 30 -33 0 -5 -8 -2 -18 7 -24 22 -29 21 -35 -3 -5
-21 24 -46 37 -32 4 3 4 -1 0 -11 -3 -10 -1 -17 5 -17 6 0 11 -7 11 -15 0 -8
-6 -12 -14 -9 -19 7 -28 -22 -10 -36 11 -10 14 -9 14 4 0 20 5 20 35 0 28 -18
32 -49 10 -78 -19 -26 -19 -34 3 -39 9 -3 2 -5 -16 -6 -19 -1 -35 -7 -39 -16
-9 -24 5 -31 21 -10 10 14 15 15 21 5 5 -8 2 -18 -8 -25 -10 -7 -17 -17 -17
-23 0 -22 -23 -62 -36 -62 -7 0 -14 -6 -17 -12 -3 -9 -9 -7 -20 7 -8 11 -18
17 -21 14 -4 -4 4 -17 18 -30 27 -26 25 -39 -5 -39 -20 0 -26 -15 -9 -25 6 -3
10 -1 10 4 0 6 9 11 20 11 18 0 19 -3 9 -21 -6 -12 -7 -19 -1 -15 5 3 15 -1
22 -9 7 -8 21 -15 31 -15 11 0 19 -5 19 -11 0 -5 5 -7 11 -3 8 4 2 12 -15 21
-14 7 -26 16 -26 19 0 3 5 2 11 -2 6 -3 15 0 20 7 6 11 11 11 20 2 9 -9 17 -9
32 -1 16 8 17 12 6 19 -11 7 -10 11 6 23 15 12 16 15 5 16 -25 0 -41 -16 -34
-33 5 -13 2 -16 -10 -11 -11 4 -14 13 -11 24 4 12 -1 22 -12 29 -10 5 -14 13
-10 18 5 4 15 -1 23 -11 14 -20 14 -20 29 0 8 10 12 28 9 39 -6 20 -6 20 9 0
10 -13 12 -24 6 -31 -7 -8 -2 -11 16 -11 25 0 33 11 15 22 -15 9 -12 25 4 19
18 -7 27 -54 15 -74 -7 -11 -8 -8 -4 10 6 22 4 21 -16 -8 -12 -18 -21 -44 -21
-57 0 -18 -6 -25 -20 -25 -10 0 -18 -6 -17 -12 4 -30 -2 -39 -19 -34 -13 5
-22 -1 -30 -19 -9 -19 -9 -25 1 -25 6 -1 -8 -19 -32 -40 -24 -22 -41 -40 -38
-40 3 0 13 -3 23 -7 11 -4 15 -3 11 4 -4 6 0 13 8 17 8 3 17 2 19 -3 8 -12
-27 -37 -46 -33 -23 4 -17 -25 11 -54 18 -19 20 -27 11 -44 -12 -22 -47 -23
-43 -2 2 6 -4 9 -12 6 -13 -5 -13 -8 0 -21 8 -8 15 -19 15 -25 0 -6 12 -8 30
-4 17 3 30 1 30 -4 0 -6 -9 -10 -20 -10 -11 0 -23 -7 -26 -15 -4 -8 -14 -15
-23 -15 -9 0 -24 -9 -34 -20 -16 -19 -16 -21 3 -40 11 -11 25 -20 31 -20 6 0
1 8 -11 18 l-22 17 21 19 c12 11 21 16 21 11 0 -4 7 -2 15 5 21 17 30 6 10
-13 -17 -17 -21 -67 -5 -67 6 0 10 4 10 10 0 5 11 12 25 16 14 3 25 12 25 20
0 8 9 14 20 14 19 0 19 -1 2 -17 -32 -31 -81 -63 -96 -63 -9 0 -12 -7 -9 -20
4 -14 0 -20 -12 -20 -11 0 -15 -5 -11 -15 4 -11 -1 -15 -18 -15 -28 0 -51 -24
-42 -45 3 -9 0 -15 -8 -15 -8 0 -17 -7 -20 -16 -3 -8 -11 -12 -17 -9 -6 4 -13
-2 -16 -14 -5 -21 -41 -37 -65 -29 -8 3 -4 13 15 30 33 31 36 52 5 43 -18 -5
-20 -4 -8 4 8 6 22 8 32 5 21 -6 35 15 17 28 -11 7 -9 8 5 4 12 -4 26 2 42 19
13 14 26 25 29 25 12 0 39 33 42 50 1 10 -5 21 -14 24 -21 9 -31 -3 -13 -14
11 -7 12 -12 4 -20 -9 -9 -14 -9 -18 -1 -4 6 -18 11 -32 11 -13 0 -24 5 -24
12 0 13 -29 -22 -30 -36 0 -4 17 -5 38 -2 l37 6 -24 -20 c-13 -11 -28 -20 -35
-20 -6 0 -4 5 4 11 12 8 11 9 -6 4 -24 -6 -59 25 -36 32 6 3 12 11 12 18 0 7
6 16 13 18 6 3 -3 11 -20 18 -18 8 -33 17 -33 21 0 13 28 9 44 -7 16 -17 46
-20 46 -5 0 5 -13 16 -30 25 -39 20 -39 37 0 22 20 -8 31 -20 36 -40 8 -38 23
-21 17 20 -4 22 -9 30 -19 26 -9 -3 -14 1 -14 12 0 9 4 14 9 11 10 -6 9 69 -1
79 -11 11 -31 -25 -20 -38 7 -8 7 -17 -2 -30 -16 -21 -27 -22 -20 -2 4 8 -1
26 -10 40 -20 31 -21 41 -1 25 13 -11 14 -10 9 4 -3 9 -10 16 -15 16 -5 0 -9
7 -9 15 0 8 5 15 10 15 6 0 10 -4 10 -10 0 -5 5 -10 10 -10 7 0 7 6 0 20 -6
11 -7 20 -3 20 10 0 -19 20 -30 20 -5 0 -6 -4 -3 -8 2 -4 -4 -8 -15 -8 -24 0
-24 1 2 25 20 18 21 22 7 43 -10 16 -12 32 -6 53 4 17 6 36 3 43 -7 19 12 14
20 -5 14 -33 14 -61 -1 -67 -12 -5 -10 -12 8 -41 13 -19 28 -35 34 -35 15 0
54 -35 54 -49 0 -19 17 -12 23 9 3 11 1 20 -5 20 -5 0 -6 5 -3 10 4 6 -4 19
-17 30 -28 23 -38 25 -38 5 0 -21 -23 -9 -36 19 -10 21 -8 27 13 44 16 13 21
22 14 27 -8 4 -3 13 11 25 29 23 20 33 -14 16 -24 -13 -28 -12 -46 8 -11 11
-17 27 -15 34 3 7 -3 12 -14 12 -15 1 -15 3 5 13 12 7 19 16 15 21 -4 4 0 4
10 0 10 -3 17 -1 17 5 0 6 -5 11 -10 11 -7 0 -7 6 0 20 11 20 -3 30 -15 10
-18 -30 -37 5 -26 47 6 21 3 35 -12 56 -19 28 -18 45 2 32 6 -3 9 -11 6 -16
-4 -5 -1 -9 5 -9 6 0 8 -5 4 -11 -4 -7 -2 -10 5 -8 7 3 12 8 11 12 -9 37 -14
47 -25 47 -7 0 -15 7 -19 15 -4 12 -2 13 13 6 15 -8 20 -5 29 14 6 14 8 24 4
24 -19 -3 -25 2 -12 11 11 7 5 10 -25 11 -28 2 -32 3 -14 6 26 4 43 31 39 62
-1 9 6 12 24 9 21 -4 24 -2 16 12 -5 10 -16 20 -23 23 -10 4 -13 15 -10 31 3
14 0 33 -7 41 -13 16 -6 35 15 35 15 0 23 26 17 53 -3 12 -10 16 -24 11 -12
-3 -18 -2 -15 3 4 6 -1 19 -11 29 -9 10 -18 33 -19 49 -2 25 0 27 8 12 10 -18
11 -18 32 0 11 10 17 12 13 5 -7 -12 -4 -12 15 -1 18 9 20 13 9 17 -8 3 -21
10 -29 16 -11 8 -13 8 -7 -1 4 -7 2 -13 -3 -13 -13 0 -12 80 1 97 5 6 22 10
37 8 32 -4 59 9 42 19 -6 4 -11 11 -11 15 0 9 37 8 46 -2z m35 -30 c-10 -9
-11 -8 -5 6 3 10 9 15 12 12 3 -3 0 -11 -7 -18z m153 7 c3 -8 2 -12 -4 -9 -6
3 -10 10 -10 16 0 14 7 11 14 -7z m-307 0 c-3 -3 -12 -4 -19 -1 -8 3 -5 6 6 6
11 1 17 -2 13 -5z m-100 -61 c-3 -10 -5 -4 -5 12 0 17 2 24 5 18 2 -7 2 -21 0
-30z m488 7 c3 -5 1 -10 -4 -10 -6 0 -11 5 -11 10 0 6 2 10 4 10 3 0 8 -4 11
-10z m-44 -60 c4 -3 0 -14 -8 -25 -12 -16 -14 -16 -10 -3 9 25 -14 34 -30 13
-7 -11 -13 -14 -13 -9 0 6 10 21 22 34 17 18 23 20 26 9 3 -8 8 -16 13 -19z
m16 -98 c-22 -24 -21 -32 1 -32 15 -1 15 -2 -2 -11 -14 -9 -20 -8 -27 2 -5 8
-9 10 -9 6 0 -5 -4 -5 -10 -2 -6 4 -5 11 3 19 6 8 15 12 20 9 4 -2 10 3 13 11
3 9 11 16 17 16 5 0 3 -8 -6 -18z m-67 -12 c0 -5 -2 -10 -4 -10 -3 0 -8 5 -11
10 -3 6 -1 10 4 10 6 0 11 -4 11 -10z m-388 -22 c-7 -7 -12 -8 -12 -2 0 14 12
26 19 19 2 -3 -1 -11 -7 -17z m358 12 c0 -5 -4 -10 -10 -10 -5 0 -10 5 -10 10
0 6 5 10 10 10 6 0 10 -4 10 -10z m-245 -30 c-3 -5 -12 -10 -18 -10 -7 0 -6 4
3 10 19 12 23 12 15 0z m280 -10 c-3 -5 -1 -11 5 -15 12 -7 14 -55 2 -55 -5 0
-9 6 -9 13 0 6 -3 27 -8 46 -5 24 -4 31 4 27 6 -4 9 -11 6 -16z m60 -30 c3 -5
-1 -10 -10 -10 -9 0 -13 5 -10 10 3 6 8 10 10 10 2 0 7 -4 10 -10z m-370 -29
c3 -5 1 -12 -5 -16 -5 -3 -10 1 -10 9 0 18 6 21 15 7z m347 -30 c-22 -18 -31
-37 -12 -26 6 3 7 -1 4 -9 -9 -22 -21 -20 -30 6 -7 23 16 48 44 48 11 0 9 -5
-6 -19z m-12 -65 c0 -3 -4 -8 -10 -11 -5 -3 -10 -1 -10 4 0 6 5 11 10 11 6 0
10 -2 10 -4z m-340 -41 c-7 -8 -18 -15 -24 -15 -6 0 -2 7 8 15 25 19 32 19 16
0z m388 -10 c-2 -26 -12 -32 -23 -15 -3 6 -1 10 6 10 8 0 8 4 -1 15 -10 12
-10 15 4 15 11 0 15 -8 14 -25z m-372 -72 c-7 -7 -26 7 -26 19 0 6 6 6 15 -2
9 -7 13 -15 11 -17z m319 -103 c3 -5 1 -10 -4 -10 -6 0 -11 5 -11 10 0 6 2 10
4 10 3 0 8 -4 11 -10z m-63 -142 c-7 -7 -12 -8 -12 -2 0 14 12 26 19 19 2 -3
-1 -11 -7 -17z m-267 -78 c3 -5 1 -10 -4 -10 -6 0 -11 5 -11 10 0 6 2 10 4 10
3 0 8 -4 11 -10z m435 -26 c0 -8 -5 -12 -10 -9 -6 4 -8 11 -5 16 9 14 15 11
15 -7z m-24 -43 c-4 -6 -14 -11 -22 -11 -8 0 -14 -4 -14 -10 0 -5 -4 -10 -10
-10 -16 0 -12 30 5 36 8 4 15 13 15 22 0 15 1 15 16 0 9 -9 13 -21 10 -27z
m-71 -41 c-4 -6 -1 -17 5 -25 16 -19 1 -19 -23 -1 -18 14 -18 15 0 25 23 13
26 13 18 1z m-207 -49 c3 -8 -1 -12 -9 -9 -7 2 -15 10 -17 17 -3 8 1 12 9 9 7
-2 15 -10 17 -17z m192 2 c0 -5 -13 -21 -29 -36 -20 -19 -31 -25 -36 -17 -4 7
3 22 16 35 23 23 49 32 49 18z m-16 -58 c-6 -16 -24 -21 -24 -7 0 11 11 22 21
22 5 0 6 -7 3 -15z m104 -28 c-7 -8 -19 -12 -27 -9 -8 3 -11 0 -7 -7 8 -12 -6
-15 -17 -4 -8 7 34 39 46 35 4 -1 8 6 8 16 1 16 2 16 6 0 2 -10 -2 -24 -9 -31z
m-58 13 c0 -5 -2 -10 -4 -10 -3 0 -8 5 -11 10 -3 6 -1 10 4 10 6 0 11 -4 11
-10z m-16 -26 c11 -30 6 -72 -10 -78 -26 -10 -32 -7 -27 14 3 11 10 20 15 20
5 0 7 13 3 30 -7 31 8 42 19 14z m-39 -24 c3 -5 2 -10 -4 -10 -5 0 -13 5 -16
10 -3 6 -2 10 4 10 5 0 13 -4 16 -10z m-254 -13 c-1 -12 -15 -9 -19 4 -3 6 1
10 8 8 6 -3 11 -8 11 -12z m329 -7 c0 -5 -4 -10 -10 -10 -5 0 -10 5 -10 10 0
6 5 10 10 10 6 0 10 -4 10 -10z m-350 -30 c0 -5 -5 -10 -11 -10 -5 0 -7 5 -4
10 3 6 8 10 11 10 2 0 4 -4 4 -10z m340 -30 c0 -5 -4 -10 -10 -10 -5 0 -10 5
-10 10 0 6 5 10 10 10 6 0 10 -4 10 -10z m-86 -25 c-6 -16 -24 -21 -24 -7 0
11 11 22 21 22 5 0 6 -7 3 -15z m156 -15 c0 -5 -4 -10 -10 -10 -5 0 -10 5 -10
10 0 6 5 10 10 10 6 0 10 -4 10 -10z m-409 -34 c5 3 9 1 9 -5 0 -5 -4 -13 -10
-16 -5 -3 -10 -4 -10 -1 0 2 -2 10 -3 18 -2 7 -2 10 0 5 3 -4 9 -5 14 -1z
m359 -19 c-9 -7 -14 -20 -12 -30 3 -16 1 -17 -16 -8 -15 8 -23 7 -31 -3 -9
-11 -9 -15 0 -18 7 -2 9 -10 5 -17 -6 -9 -11 -9 -24 1 -15 12 -16 11 -4 -4 12
-15 12 -20 -2 -34 -12 -12 -20 -13 -30 -5 -7 6 -16 8 -19 4 -4 -3 1 -12 11
-19 15 -12 15 -13 1 -14 -15 0 -49 -31 -106 -95 -29 -33 -29 -34 6 -33 20 1
28 5 24 14 -2 7 0 21 7 31 9 15 10 10 8 -25 -3 -31 0 -41 9 -38 7 3 15 0 19
-6 5 -7 10 -3 15 10 5 12 15 22 23 22 8 0 18 9 21 20 3 11 12 20 20 20 7 0 15
8 18 19 2 10 18 24 35 32 17 7 28 18 25 26 -3 7 -1 13 5 13 9 0 26 -30 20 -35
-41 -27 -77 -59 -73 -64 6 -11 -44 -61 -63 -62 -10 -1 -7 -4 8 -8 30 -9 50 -3
50 14 0 16 18 30 27 21 3 -3 1 -12 -6 -20 -10 -12 -5 -14 29 -12 22 1 40 -1
40 -6 0 -4 7 -8 15 -8 8 0 15 -4 15 -10 0 -14 -32 -27 -62 -26 -16 1 -28 1
-28 0 0 0 8 -11 19 -22 10 -12 30 -22 45 -22 30 0 33 -15 9 -43 -10 -11 -12
-17 -5 -13 7 5 12 1 12 -9 0 -11 -5 -15 -15 -12 -8 4 -17 2 -20 -4 -4 -5 1
-12 9 -15 9 -3 16 -10 16 -16 0 -5 -5 -6 -10 -3 -14 9 -52 -4 -45 -16 4 -5 -2
-9 -12 -10 -16 0 -17 -1 -1 -7 13 -5 15 -11 8 -22 -7 -10 -10 -11 -10 -2 0 6
-5 12 -11 12 -6 0 -9 -9 -6 -19 4 -17 2 -18 -19 -9 -25 12 -59 -5 -48 -24 3
-5 12 -1 19 9 13 17 30 12 30 -8 0 -13 11 -12 46 7 17 8 33 13 37 10 3 -3 11
-1 18 5 8 7 14 7 18 0 8 -12 -22 -44 -50 -55 -19 -8 -19 -8 0 -15 33 -12 3
-20 -39 -11 -22 5 -41 7 -44 5 -7 -8 51 -25 62 -18 7 3 9 2 4 -2 -4 -5 1 -17
10 -28 17 -19 17 -19 -7 -12 -22 7 -23 6 -11 -9 9 -10 10 -16 2 -16 -6 0 -11
-7 -11 -16 0 -8 -7 -22 -15 -30 -8 -9 -15 -12 -15 -8 0 4 -2 5 -5 2 -9 -8 6
-38 16 -32 5 3 12 -2 15 -10 3 -9 14 -16 23 -16 10 0 12 3 4 8 -13 8 -21 36
-10 40 17 6 26 1 21 -12 -3 -8 -1 -17 5 -21 18 -11 12 -23 -15 -29 -19 -5 -33
-1 -48 13 -12 12 -26 21 -30 21 -4 0 6 -11 22 -25 17 -14 35 -25 41 -25 6 0
11 -7 11 -15 0 -9 9 -15 23 -16 21 0 21 -1 2 -8 -11 -5 -34 -6 -51 -4 -19 3
-34 0 -39 -7 -6 -10 -1 -11 19 -6 14 3 26 2 26 -3 0 -5 6 -11 13 -14 6 -2 2
-2 -10 0 -16 2 -23 -2 -23 -12 0 -8 -5 -15 -11 -15 -5 0 -8 4 -4 9 3 5 1 12
-4 15 -5 3 -11 -1 -15 -9 -3 -9 -12 -12 -22 -8 -13 5 -16 3 -11 -10 4 -11 1
-17 -9 -17 -12 0 -12 -2 -2 -14 11 -11 14 -11 16 -1 3 14 32 29 40 20 3 -3 0
-5 -6 -5 -7 0 -12 -7 -12 -15 0 -11 7 -14 24 -9 13 3 27 1 30 -5 4 -7 -1 -11
-13 -11 -12 0 -21 -5 -21 -11 0 -7 -11 -8 -30 -4 -24 5 -30 3 -30 -10 0 -9 4
-14 10 -10 14 9 52 -33 43 -48 -5 -8 -9 -7 -11 6 -2 9 -9 17 -15 18 -7 0 -21
2 -32 4 -11 3 -28 2 -37 -1 -32 -10 -19 -21 25 -20 29 1 41 -3 40 -11 -2 -7 2
-13 8 -13 7 0 9 -10 5 -26 -6 -23 -4 -25 16 -20 13 3 17 3 11 0 -20 -9 -15
-24 5 -17 15 6 15 5 3 -10 -13 -16 -15 -16 -28 3 -17 24 -33 26 -33 3 0 -15
-2 -14 -15 3 -16 21 -19 35 -7 33 19 -3 33 2 27 11 -4 7 -13 6 -27 -1 -16 -9
-24 -7 -42 10 -22 21 -56 28 -56 13 0 -5 -10 -14 -22 -21 -17 -9 -18 -10 -3
-5 51 17 70 15 93 -9 15 -16 20 -27 13 -32 -6 -3 -11 0 -11 7 -1 7 -10 2 -21
-12 l-21 -25 23 -6 24 -7 -24 -1 c-18 -1 -22 -4 -14 -12 8 -8 17 -8 33 1 12 6
24 9 28 6 3 -3 0 -6 -6 -6 -17 0 -15 -37 2 -43 11 -4 13 3 11 29 -2 19 0 34 5
34 13 0 22 -37 15 -61 -5 -15 -4 -19 4 -15 6 4 11 3 11 -3 0 -5 -4 -13 -10
-16 -5 -3 -10 -1 -10 5 0 7 -7 9 -16 6 -8 -3 -13 -2 -10 2 3 4 -4 13 -14 19
-15 10 -19 8 -24 -13 -4 -13 -11 -24 -17 -24 -8 0 -8 4 0 14 17 21 -23 43 -45
25 -8 -6 -18 -9 -22 -5 -4 4 2 14 13 22 19 15 19 15 -7 9 -33 -8 -36 0 -7 16
17 9 25 7 45 -12 24 -22 35 -14 12 9 -7 7 -8 12 -4 12 5 0 3 7 -4 15 -9 11 -9
15 -1 15 7 0 9 5 6 11 -4 6 1 17 11 24 11 8 14 15 7 15 -6 0 -14 -4 -18 -10
-3 -5 -13 -6 -22 -3 -11 4 -14 3 -9 -5 13 -22 -10 -12 -44 18 -38 34 -50 37
-50 13 0 -13 -3 -14 -12 -5 -8 8 -8 15 1 26 7 8 10 20 6 26 -3 5 -2 10 3 10 6
0 12 -7 16 -15 8 -22 37 -18 43 5 3 11 9 20 14 20 16 0 -2 28 -22 33 -29 8
-29 8 -27 0 2 -5 6 -7 10 -6 5 2 8 -2 8 -7 0 -6 -2 -10 -4 -10 -2 0 -12 -3
-22 -7 -14 -5 -16 -1 -12 23 3 16 7 35 9 43 2 7 -2 16 -9 18 -8 3 -10 -1 -6
-11 3 -9 1 -16 -4 -16 -6 0 -13 -8 -15 -17 -2 -10 -3 -5 -1 10 2 17 0 26 -6
22 -6 -3 -10 -2 -10 4 0 6 12 14 27 17 19 5 30 2 40 -11 9 -13 13 -14 13 -5 0
7 3 11 6 7 4 -3 13 1 21 9 9 8 12 18 8 22 -4 4 -10 1 -12 -5 -5 -15 -22 -16
-42 -4 -13 8 -13 12 -1 26 12 15 11 16 -13 10 -21 -6 -27 -4 -27 9 0 10 9 16
25 16 14 0 25 4 25 9 0 14 -37 20 -49 8 -20 -20 -12 9 11 38 l22 28 -30 -7
c-27 -7 -28 -7 -9 8 l20 15 -20 16 c-11 9 -15 14 -10 11 6 -2 16 4 23 14 10
16 8 20 -8 25 -11 4 -18 11 -14 16 3 6 12 8 20 5 7 -3 16 -1 19 4 4 6 0 10 -8
10 -21 0 -42 27 -25 32 7 3 12 20 11 40 -1 29 3 37 20 42 12 3 18 8 15 11 -3
4 -16 2 -27 -5 -18 -9 -22 -7 -31 15 -13 34 -13 36 8 51 15 12 15 13 -7 9 -22
-4 -22 -3 -7 14 20 22 21 35 1 27 -8 -3 -15 -2 -15 3 0 13 27 33 32 24 3 -4 2
-1 -1 7 -3 8 -5 36 -5 62 -1 41 -4 47 -18 42 -14 -4 -18 0 -18 20 0 20 5 26
21 26 19 0 20 2 8 17 -13 15 -12 15 9 4 13 -7 30 -10 37 -7 8 3 17 1 20 -4 8
-13 25 -13 25 -1 0 5 -9 12 -19 16 -24 7 -24 60 -1 60 25 1 53 22 48 36 -5 16
6 28 45 48 15 8 27 19 27 24 0 14 41 47 58 47 9 0 12 6 8 16 -3 9 -2 12 5 8 6
-3 18 4 26 16 23 32 75 62 88 49 7 -7 5 -14 -5 -22z m-326 -55 c5 -9 -22 -48
-29 -41 -2 3 -2 15 2 27 5 22 18 29 27 14z m286 -82 c0 -13 -5 -18 -15 -14
-12 5 -13 10 -4 20 15 19 19 18 19 -6z m100 10 c0 -5 -4 -10 -9 -10 -6 0 -13
5 -16 10 -3 6 1 10 9 10 9 0 16 -4 16 -10z m-140 -60 c0 -5 -11 -12 -25 -16
-15 -4 -25 -13 -25 -24 0 -10 -7 -20 -15 -24 -14 -5 -16 -2 -19 24 -1 6 15 19
34 29 42 22 50 24 50 11z m-252 -75 c-11 -12 -38 8 -38 28 l0 21 22 -21 c12
-13 19 -25 16 -28z m337 15 c3 -5 2 -10 -4 -10 -5 0 -13 5 -16 10 -3 6 -2 10
4 10 5 0 13 -4 16 -10z m-385 -139 c0 -6 -4 -13 -10 -16 -5 -3 -10 1 -10 9 0
9 5 16 10 16 6 0 10 -4 10 -9z m401 -158 c-12 -20 -14 -14 -5 12 4 9 9 14 11
11 3 -2 0 -13 -6 -23z m-388 -110 c-2 -16 -5 -38 -6 -50 -1 -13 -6 -23 -11
-23 -5 0 -6 14 -2 31 3 17 6 40 6 50 0 11 4 19 9 19 5 0 7 -12 4 -27z m417
-43 c0 -24 -6 -25 -26 -6 -11 11 -11 16 -1 19 22 10 27 7 27 -13z m25 -120 c3
-5 1 -10 -4 -10 -6 0 -11 5 -11 10 0 6 2 10 4 10 3 0 8 -4 11 -10z m-28 -27
c-3 -3 -11 -2 -17 2 -9 6 -9 10 1 16 14 8 27 -7 16 -18z m-27 -149 c0 -8 -5
-12 -10 -9 -6 4 -8 11 -5 16 9 14 15 11 15 -7z m-35 -14 c3 -5 2 -10 -4 -10
-5 0 -13 5 -16 10 -3 6 -2 10 4 10 5 0 13 -4 16 -10z m-5 -102 c0 -13 -23 -5
-28 10 -2 7 2 10 12 6 9 -3 16 -11 16 -16z m-260 -4 c0 -17 -22 -14 -28 4 -2
7 3 12 12 12 9 0 16 -7 16 -16z m-238 -36 c-7 -7 -12 -8 -12 -2 0 14 12 26 19
19 2 -3 -1 -11 -7 -17z m495 16 c-3 -3 -12 -4 -19 -1 -8 3 -5 6 6 6 11 1 17
-2 13 -5z m-27 -24 c0 -5 -2 -10 -4 -10 -3 0 -8 5 -11 10 -3 6 -1 10 4 10 6 0
11 -4 11 -10z m55 3 c-11 -3 -23 -10 -27 -17 -5 -7 -8 -7 -8 0 0 16 11 24 34
23 20 -1 20 -1 1 -6z m-295 -38 c0 -7 11 -16 24 -19 32 -8 41 -33 14 -41 -11
-4 -25 -2 -31 4 -8 8 -6 11 6 11 9 0 17 5 17 11 0 6 -7 8 -15 5 -11 -4 -19 3
-25 20 -13 32 -12 37 0 29 6 -3 10 -12 10 -20z m315 5 c3 -5 1 -10 -4 -10 -6
0 -11 5 -11 10 0 6 2 10 4 10 3 0 8 -4 11 -10z m-343 -77 c-2 -7 -11 -13 -19
-13 -9 0 -11 5 -6 13 8 13 9 16 13 45 1 12 4 10 9 -8 4 -14 6 -31 3 -37z m158
37 c0 -5 -4 -10 -10 -10 -5 0 -10 5 -10 10 0 6 5 10 10 10 6 0 10 -4 10 -10z
m26 -17 c-10 -10 -19 5 -10 18 6 11 8 11 12 0 2 -7 1 -15 -2 -18z m98 2 c-4
-8 -11 -15 -16 -15 -6 0 -5 6 2 15 7 8 14 15 16 15 2 0 1 -7 -2 -15z m36 -46
c0 -5 -4 -9 -8 -9 -5 0 -9 7 -9 15 0 8 4 12 9 9 4 -3 8 -9 8 -15z m-284 -16
c-7 -7 -26 7 -26 19 0 6 6 6 15 -2 9 -7 13 -15 11 -17z m228 12 c-4 -8 -10
-12 -15 -9 -14 8 -10 24 6 24 9 0 12 -6 9 -15z m-154 -65 c0 -5 -4 -10 -9 -10
-6 0 -13 5 -16 10 -3 6 1 10 9 10 9 0 16 -4 16 -10z m60 0 c0 -5 -7 -10 -16
-10 -8 0 -12 5 -9 10 3 6 10 10 16 10 5 0 9 -4 9 -10z m-110 -10 c0 -5 -2 -10
-4 -10 -3 0 -8 5 -11 10 -3 6 -1 10 4 10 6 0 11 -4 11 -10z m136 -16 c-11 -8
-25 -14 -30 -13 -6 0 -1 5 12 11 12 6 22 16 22 21 0 6 3 7 7 3 5 -4 -1 -14
-11 -22z m-91 -4 c3 -5 -1 -10 -9 -10 -9 0 -16 5 -16 10 0 6 4 10 9 10 6 0 13
-4 16 -10z m-45 -14 c0 -3 -4 -8 -10 -11 -5 -3 -10 -1 -10 4 0 6 5 11 10 11 6
0 10 -2 10 -4z m41 -46 c-19 -16 -37 -28 -39 -25 -6 6 25 35 37 35 6 0 11 5
11 10 0 6 6 10 13 10 6 -1 -3 -14 -22 -30z m86 24 c-3 -3 -12 -4 -19 -1 -8 3
-5 6 6 6 11 1 17 -2 13 -5z m-17 -34 c0 -5 -5 -10 -11 -10 -5 0 -7 5 -4 10 3
6 8 10 11 10 2 0 4 -4 4 -10z m30 -20 c-24 -15 -36 -11 -14 4 10 8 21 12 24
10 2 -3 -2 -9 -10 -14z m-80 -90 c0 -5 -2 -10 -4 -10 -3 0 -8 5 -11 10 -3 6
-1 10 4 10 6 0 11 -4 11 -10z m55 0 c-27 -12 -43 -12 -25 0 8 5 22 9 30 9 10
0 8 -3 -5 -9z m-2095 -70 c0 -5 -4 -10 -10 -10 -5 0 -10 5 -10 10 0 6 5 10 10
10 6 0 10 -4 10 -10z"/>
<path d="M5890 5846 c0 -2 7 -7 16 -10 8 -3 12 -2 9 4 -6 10 -25 14 -25 6z"/>
<path d="M5674 5812 c3 -5 17 -12 32 -15 30 -5 20 8 -15 18 -15 4 -21 3 -17
-3z"/>
<path d="M5620 5769 c0 -5 5 -7 10 -4 6 3 10 8 10 11 0 2 -4 4 -10 4 -5 0 -10
-5 -10 -11z"/>
<path d="M5715 5771 c-3 -5 -1 -12 5 -16 5 -3 10 1 10 9 0 18 -6 21 -15 7z"/>
<path d="M5685 5680 c-3 -5 -2 -10 4 -10 5 0 13 5 16 10 3 6 2 10 -4 10 -5 0
-13 -4 -16 -10z"/>
<path d="M5775 5680 c-3 -5 1 -10 9 -10 9 0 16 5 16 10 0 6 -4 10 -9 10 -6 0
-13 -4 -16 -10z"/>
<path d="M6006 5651 c-4 -7 -5 -15 -2 -18 9 -9 19 4 14 18 -4 11 -6 11 -12 0z"/>
<path d="M5810 5636 c0 -7 -7 -19 -15 -26 -13 -11 -13 -14 1 -27 8 -9 18 -12
22 -9 3 4 1 11 -6 15 -10 6 -10 11 3 21 17 14 20 40 5 40 -5 0 -10 -6 -10 -14z"/>
<path d="M5770 5630 c0 -5 5 -10 11 -10 5 0 7 5 4 10 -3 6 -8 10 -11 10 -2 0
-4 -4 -4 -10z"/>
<path d="M5682 5610 c-17 -27 -15 -57 3 -57 18 0 19 9 3 26 -11 11 -10 12 1 6
10 -6 13 -4 8 7 -3 9 0 21 6 27 6 6 7 11 1 11 -5 0 -15 -9 -22 -20z"/>
<path d="M5870 5585 c0 -8 2 -15 4 -15 2 0 6 7 10 15 3 8 1 15 -4 15 -6 0 -10
-7 -10 -15z"/>
<path d="M5720 5571 c0 -6 4 -13 10 -16 6 -3 7 1 4 9 -7 18 -14 21 -14 7z"/>
<path d="M5767 5556 c-4 -10 -1 -13 8 -9 8 3 12 9 9 14 -7 12 -11 11 -17 -5z"/>
<path d="M5815 5549 c-4 -6 0 -18 9 -27 15 -15 16 -15 16 5 0 25 -15 38 -25
22z"/>
<path d="M5741 5494 c0 -11 3 -14 6 -6 3 7 2 16 -1 19 -3 4 -6 -2 -5 -13z"/>
<path d="M5831 5483 c-1 -14 -7 -23 -16 -23 -8 0 -15 -4 -15 -10 0 -5 7 -10
16 -10 27 0 11 -34 -23 -49 -38 -17 -56 -46 -22 -36 13 5 25 2 31 -6 8 -11 9
-10 5 3 -7 20 23 34 35 16 12 -20 10 -28 -14 -37 l-22 -8 22 -18 c11 -10 18
-23 15 -28 -3 -5 4 -4 15 2 29 15 38 33 16 29 -20 -3 -20 -1 -27 94 -1 21 -6
38 -11 38 -5 0 -4 6 2 13 5 7 6 21 1 32 -7 19 -8 19 -8 -2z"/>
<path d="M5950 5480 c0 -5 4 -10 9 -10 6 0 13 5 16 10 3 6 -1 10 -9 10 -9 0
-16 -4 -16 -10z"/>
<path d="M5883 5403 c0 -10 -3 -28 -6 -40 -7 -27 25 -38 41 -13 8 13 8 25 -1
44 -14 30 -32 34 -34 9z m37 -32 c0 -12 -20 -25 -27 -18 -7 7 6 27 18 27 5 0
9 -4 9 -9z"/>
<path d="M5930 5404 c0 -8 5 -12 10 -9 6 4 8 11 5 16 -9 14 -15 11 -15 -7z"/>
<path d="M5975 5360 c15 -6 16 -9 4 -9 -9 -1 -21 -13 -28 -27 -9 -21 -14 -24
-26 -14 -9 7 -15 8 -15 2 0 -5 7 -15 15 -22 12 -10 18 -10 30 0 9 7 18 10 22
7 11 -12 30 25 25 49 -3 17 -11 24 -26 23 -20 0 -20 -1 -1 -9z"/>
<path d="M5810 5260 c0 -5 7 -10 16 -10 8 0 12 5 9 10 -3 6 -10 10 -16 10 -5
0 -9 -4 -9 -10z"/>
<path d="M5810 5230 c0 -5 5 -10 11 -10 5 0 7 5 4 10 -3 6 -8 10 -11 10 -2 0
-4 -4 -4 -10z"/>
<path d="M5770 5209 c0 -5 5 -7 10 -4 6 3 10 8 10 11 0 2 -4 4 -10 4 -5 0 -10
-5 -10 -11z"/>
<path d="M5812 5196 c10 -7 15 -16 11 -19 -3 -4 1 -7 10 -7 10 0 17 2 17 4 0
10 -32 36 -43 36 -7 0 -4 -7 5 -14z"/>
<path d="M5685 4860 c4 -6 11 -8 16 -5 14 9 11 15 -7 15 -8 0 -12 -5 -9 -10z"/>
<path d="M5746 4756 c10 -8 21 -12 24 -10 5 6 -21 24 -34 24 -6 0 -1 -6 10
-14z"/>
<path d="M5653 4727 c-4 -6 -1 -13 5 -15 7 -2 12 -10 12 -19 0 -11 7 -9 29 9
15 13 27 25 25 27 -8 9 -65 7 -71 -2z"/>
<path d="M5716 4683 c-6 -14 -5 -15 5 -6 7 7 10 15 7 18 -3 3 -9 -2 -12 -12z"/>
<path d="M5680 4585 c0 -5 5 -17 10 -25 5 -8 10 -10 10 -5 0 6 -5 17 -10 25
-5 8 -10 11 -10 5z"/>
<path d="M5710 4531 c-13 -25 -13 -31 0 -31 6 0 10 7 10 15 0 8 5 15 10 15 6
0 10 -7 10 -15 0 -8 5 -15 10 -15 6 0 10 3 10 6 0 12 -21 44 -30 44 -5 0 -14
-9 -20 -19z"/>
<path d="M5895 4510 c3 -5 8 -10 11 -10 2 0 4 5 4 10 0 6 -5 10 -11 10 -5 0
-7 -4 -4 -10z"/>
<path d="M5725 4480 c3 -5 11 -10 16 -10 6 0 7 5 4 10 -3 6 -11 10 -16 10 -6
0 -7 -4 -4 -10z"/>
<path d="M5875 4480 c3 -5 11 -10 16 -10 6 0 7 5 4 10 -3 6 -11 10 -16 10 -6
0 -7 -4 -4 -10z"/>
<path d="M5740 4450 c-9 -6 -10 -10 -3 -10 6 0 15 5 18 10 8 12 4 12 -15 0z"/>
<path d="M5800 4450 c0 -5 5 -10 10 -10 6 0 10 5 10 10 0 6 -4 10 -10 10 -5 0
-10 -4 -10 -10z"/>
<path d="M5876 4432 c-8 -13 11 -35 23 -28 6 4 11 5 11 1 0 -3 -11 -10 -25
-15 -30 -12 -35 -50 -6 -50 11 0 21 -6 24 -12 2 -7 8 -10 12 -6 4 4 2 15 -5
23 -11 13 -8 20 18 42 33 27 34 48 2 38 -10 -3 -21 -1 -25 5 -7 12 -22 13 -29
2z"/>
<path d="M5796 4395 c-3 -8 -12 -15 -19 -15 -8 0 -14 -7 -14 -15 0 -8 4 -15 9
-15 4 0 8 4 8 10 0 5 6 7 14 4 9 -3 15 4 18 20 6 28 -6 36 -16 11z"/>
<path d="M5705 4360 c3 -5 8 -10 11 -10 2 0 4 5 4 10 0 6 -5 10 -11 10 -5 0
-7 -4 -4 -10z"/>
<path d="M5730 4322 c-25 -20 -22 -37 10 -45 24 -6 27 8 4 17 -15 6 -15 8 1
26 23 25 14 26 -15 2z"/>
<path d="M5822 4325 c-11 -12 -10 -15 3 -15 8 0 15 7 15 15 0 18 -2 18 -18 0z"/>
<path d="M5865 4311 c-7 -12 12 -24 25 -16 11 7 4 25 -10 25 -5 0 -11 -4 -15
-9z"/>
<path d="M5745 4240 c3 -5 1 -10 -4 -10 -6 0 -11 -11 -11 -25 0 -14 5 -25 10
-25 6 0 10 6 10 13 0 6 3 22 6 35 4 13 2 22 -5 22 -7 0 -9 -4 -6 -10z"/>
<path d="M5775 4240 c-3 -5 1 -10 9 -10 8 0 18 5 21 10 3 6 -1 10 -9 10 -8 0
-18 -4 -21 -10z"/>
<path d="M5850 4220 c0 -5 5 -10 10 -10 6 0 10 5 10 10 0 6 -4 10 -10 10 -5 0
-10 -4 -10 -10z"/>
<path d="M5670 4180 c-8 -5 -11 -12 -7 -16 4 -4 13 -2 19 4 15 15 7 24 -12 12z"/>
<path d="M5810 4175 c0 -8 7 -15 16 -15 14 0 14 3 4 15 -7 8 -14 15 -16 15 -2
0 -4 -7 -4 -15z"/>
<path d="M5733 4148 c-23 -11 -31 -28 -13 -28 6 0 10 5 10 11 0 5 5 7 10 4 7
-4 7 -13 0 -26 -11 -19 3 -29 14 -10 3 5 15 7 26 4 12 -3 20 0 20 7 0 8 -9 11
-24 8 -17 -3 -23 0 -22 11 0 9 6 19 11 23 15 12 -6 9 -32 -4z"/>
<path d="M5790 4141 c0 -19 22 -23 38 -7 15 15 14 16 -11 16 -15 0 -27 -4 -27
-9z"/>
<path d="M5766 4074 c-3 -9 -12 -14 -19 -11 -46 19 -52 20 -29 2 23 -17 41
-23 75 -24 11 -1 17 -7 15 -17 -2 -10 4 -19 12 -21 12 -4 12 -3 2 5 -11 8 -11
10 2 15 8 3 17 1 19 -6 2 -7 8 -9 12 -5 13 12 -38 48 -58 42 -16 -5 -18 -2
-12 15 7 24 -10 29 -19 5z"/>
<path d="M5837 4083 c-4 -3 -7 -11 -7 -17 0 -6 5 -5 12 2 6 6 9 14 7 17 -3 3
-9 2 -12 -2z"/>
<path d="M5893 4050 c3 -13 0 -20 -8 -20 -11 0 -11 -5 1 -27 12 -25 12 -29 -3
-40 -15 -12 -15 -13 4 -13 25 0 42 48 21 61 -10 6 -10 11 -1 20 13 13 7 39 -9
39 -6 0 -8 -9 -5 -20z"/>
<path d="M5930 4030 c0 -5 5 -10 10 -10 6 0 10 5 10 10 0 6 -4 10 -10 10 -5 0
-10 -4 -10 -10z"/>
<path d="M5853 4003 c-15 -5 -18 -43 -4 -43 5 0 11 10 14 22 7 26 6 27 -10 21z"/>
<path d="M5776 3939 c-15 -18 -15 -23 -5 -30 9 -5 16 -4 18 4 2 7 9 15 15 19
7 5 8 10 1 17 -8 8 -16 4 -29 -10z"/>
<path d="M5823 3928 c0 -13 6 -26 12 -30 15 -11 35 -10 35 2 0 6 -9 10 -20 10
-12 0 -17 5 -14 14 3 8 1 17 -5 20 -5 4 -9 -3 -8 -16z"/>
<path d="M5875 3920 c3 -5 8 -10 11 -10 2 0 4 5 4 10 0 6 -5 10 -11 10 -5 0
-7 -4 -4 -10z"/>
<path d="M5750 3815 c0 -8 7 -15 16 -15 14 0 14 3 4 15 -7 8 -14 15 -16 15 -2
0 -4 -7 -4 -15z"/>
<path d="M5828 3807 c-37 -30 -37 -56 -1 -27 15 12 29 17 31 11 6 -19 30 0 25
20 -7 25 -21 24 -55 -4z"/>
<path d="M5901 3774 c0 -11 3 -14 6 -6 3 7 2 16 -1 19 -3 4 -6 -2 -5 -13z"/>
<path d="M5832 3768 c-7 -7 -12 -18 -12 -25 0 -7 -4 -13 -10 -13 -5 0 -10 5
-10 10 0 6 -4 10 -10 10 -16 0 -11 -27 6 -34 9 -4 14 -13 10 -21 -3 -9 0 -15
10 -15 8 0 13 4 10 9 -7 10 18 34 27 25 3 -3 3 -12 0 -20 -6 -16 13 -19 22 -3
4 5 -3 19 -15 29 -15 13 -21 27 -17 40 6 23 5 24 -11 8z"/>
<path d="M5805 3270 c-3 -5 -2 -10 4 -10 5 0 13 5 16 10 3 6 2 10 -4 10 -5 0
-13 -4 -16 -10z"/>
<path d="M6020 3150 c-9 -6 -10 -10 -3 -10 6 0 15 5 18 10 8 12 4 12 -15 0z"/>
<path d="M5910 3129 c0 -5 5 -7 10 -4 6 3 10 8 10 11 0 2 -4 4 -10 4 -5 0 -10
-5 -10 -11z"/>
<path d="M6035 2954 c-20 -15 -12 -17 19 -5 11 4 15 10 10 13 -5 4 -18 0 -29
-8z"/>
<path d="M5898 2953 c7 -3 16 -2 19 1 4 3 -2 6 -13 5 -11 0 -14 -3 -6 -6z"/>
<path d="M5951 2874 c0 -11 3 -14 6 -6 3 7 2 16 -1 19 -3 4 -6 -2 -5 -13z"/>
<path d="M5975 2840 c-10 -11 -15 -20 -11 -20 11 0 39 30 34 36 -3 2 -13 -5
-23 -16z"/>
<path d="M5895 2840 c-7 -12 27 -22 37 -12 6 6 1 12 -11 15 -12 3 -23 2 -26
-3z"/>
<path d="M5930 2800 c-8 -5 -10 -10 -5 -10 6 0 17 5 25 10 8 5 11 10 5 10 -5
0 -17 -5 -25 -10z"/>
<path d="M5719 2763 c-13 -16 -12 -17 4 -4 9 7 17 15 17 17 0 8 -8 3 -21 -13z"/>
<path d="M5855 2770 c3 -5 8 -10 11 -10 2 0 4 5 4 10 0 6 -5 10 -11 10 -5 0
-7 -4 -4 -10z"/>
<path d="M5798 2753 c7 -3 16 -2 19 1 4 3 -2 6 -13 5 -11 0 -14 -3 -6 -6z"/>
<path d="M5928 2736 c-17 -13 -14 -26 5 -26 6 0 7 3 4 7 -4 3 1 12 11 19 9 7
13 13 7 13 -5 0 -18 -6 -27 -13z"/>
<path d="M5730 2726 c0 -8 5 -18 10 -21 6 -3 10 1 10 9 0 8 -4 18 -10 21 -5 3
-10 -1 -10 -9z"/>
<path d="M5765 2700 c-3 -5 -1 -10 4 -10 6 0 11 5 11 10 0 6 -2 10 -4 10 -3 0
-8 -4 -11 -10z"/>
<path d="M5970 2680 c14 -11 30 -20 35 -20 6 0 -1 9 -15 20 -14 11 -29 20 -35
20 -5 0 1 -9 15 -20z"/>
<path d="M5841 2664 c0 -11 3 -14 6 -6 3 7 2 16 -1 19 -3 4 -6 -2 -5 -13z"/>
<path d="M5767 2624 c3 -8 11 -14 19 -14 21 0 17 17 -5 23 -14 3 -18 1 -14 -9z"/>
<path d="M5810 2610 c0 -5 5 -10 10 -10 6 0 10 5 10 10 0 6 -4 10 -10 10 -5 0
-10 -4 -10 -10z"/>
<path d="M5810 2570 c-20 -16 -22 -20 -7 -20 9 0 17 5 17 10 0 6 7 10 15 10 8
0 15 5 15 10 0 15 -12 12 -40 -10z"/>
<path d="M5870 2551 c0 -20 -2 -22 -15 -11 -17 14 -31 8 -20 -9 7 -13 51 -15
59 -3 2 4 -2 16 -10 27 -14 18 -14 18 -14 -4z"/>
<path d="M5778 2533 c7 -3 16 -2 19 1 4 3 -2 6 -13 5 -11 0 -14 -3 -6 -6z"/>
<path d="M5802 2493 c2 -9 10 -18 18 -20 13 -4 13 -3 0 6 -8 5 -11 13 -7 17 4
4 13 2 19 -4 16 -16 40 -15 62 1 15 11 10 13 -39 14 -46 1 -56 -1 -53 -14z"/>
<path d="M800 6173 c0 -4 5 -15 10 -23 8 -13 10 -13 10 2 0 9 -4 20 -10 23 -5
3 -10 3 -10 -2z"/>
<path d="M2632 6136 c2 -12 9 -20 16 -19 29 6 402 3 428 -3 16 -4 32 -12 37
-18 5 -7 16 -1 32 19 13 16 21 32 17 35 -4 3 -106 3 -227 0 -121 -3 -239 -2
-263 1 -40 6 -43 4 -40 -15z"/>
<path d="M4870 6015 c-14 -36 -13 -48 5 -71 15 -18 16 -16 13 28 -3 42 -1 47
14 42 24 -7 23 3 -2 16 -17 9 -22 7 -30 -15z"/>
<path d="M3161 5954 c-1 -7 -10 -14 -21 -17 -14 -3 -20 -14 -20 -31 0 -31 20
-34 44 -7 12 14 14 24 7 42 -5 13 -10 19 -10 13z"/>
<path d="M1395 5939 c-4 -6 -5 -13 -2 -16 7 -7 27 6 27 18 0 12 -17 12 -25 -2z"/>
<path d="M3675 5920 c-9 -15 4 -50 20 -50 11 0 25 20 25 35 0 11 -39 24 -45
15z"/>
<path d="M2568 5909 c-11 -6 -18 -21 -17 -37 0 -15 3 -21 6 -14 2 6 11 12 19
12 8 0 14 10 14 25 0 28 1 28 -22 14z"/>
<path d="M4878 5895 c-5 -76 -5 -91 2 -104 5 -9 9 -10 14 -2 12 19 15 51 5 51
-18 0 -9 21 14 30 17 7 18 9 5 9 -11 1 -18 9 -18 21 0 29 -20 25 -22 -5z"/>
<path d="M3163 5764 c-7 -20 11 -38 31 -31 23 9 20 34 -5 40 -13 3 -22 0 -26
-9z"/>
<path d="M4877 5753 c8 -3 11 -14 7 -28 -3 -13 0 -26 7 -31 9 -5 11 -2 6 9 -3
9 -2 19 4 23 12 7 -8 34 -25 33 -7 0 -6 -2 1 -6z"/>
<path d="M3130 5720 c0 -11 4 -20 9 -20 6 0 9 9 8 20 -1 11 -5 20 -9 20 -4 0
-8 -9 -8 -20z"/>
<path d="M4892 5664 c10 -10 20 -15 24 -12 3 4 -5 12 -18 18 -22 12 -22 12 -6
-6z"/>
<path d="M4330 5660 c0 -5 5 -10 11 -10 5 0 7 5 4 10 -3 6 -8 10 -11 10 -2 0
-4 -4 -4 -10z"/>
<path d="M4872 5620 c2 -19 8 -33 13 -30 12 6 8 41 -6 55 -7 7 -9 -1 -7 -25z"/>
<path d="M4267 5553 c1 -49 2 -128 2 -177 1 -87 2 -89 20 -72 15 14 18 27 14
69 -3 29 -6 97 -7 152 -1 88 -7 114 -26 115 -3 0 -4 -39 -3 -87z"/>
<path d="M4330 5596 c0 -8 4 -17 9 -20 5 -4 7 3 4 14 -6 23 -13 26 -13 6z"/>
<path d="M810 5590 c0 -5 5 -10 11 -10 5 0 7 5 4 10 -3 6 -8 10 -11 10 -2 0
-4 -4 -4 -10z"/>
<path d="M3765 5570 c-3 -5 -1 -10 4 -10 6 0 11 5 11 10 0 6 -2 10 -4 10 -3 0
-8 -4 -11 -10z"/>
<path d="M4908 5563 c-19 -5 -25 -23 -9 -23 5 0 13 -9 16 -20 5 -16 10 -18 25
-10 15 8 17 16 11 32 -9 24 -17 28 -43 21z m28 -40 c-11 -11 -19 6 -11 24 8
17 8 17 12 0 3 -10 2 -21 -1 -24z"/>
<path d="M3700 5545 c0 -8 5 -15 10 -15 6 0 10 7 10 15 0 8 -4 15 -10 15 -5 0
-10 -7 -10 -15z"/>
<path d="M4340 5550 c0 -5 -7 -7 -15 -4 -20 8 -19 -2 3 -24 18 -18 19 -18 19
10 0 15 -2 28 -4 28 -1 0 -3 -4 -3 -10z"/>
<path d="M4330 5456 c0 -8 5 -18 10 -21 6 -3 10 3 10 14 0 12 -4 21 -10 21 -5
0 -10 -6 -10 -14z"/>
<path d="M4325 5410 c-3 -5 -1 -10 4 -10 6 0 11 5 11 10 0 6 -2 10 -4 10 -3 0
-8 -4 -11 -10z"/>
<path d="M1990 5394 c0 -8 5 -12 10 -9 6 4 8 11 5 16 -9 14 -15 11 -15 -7z"/>
<path d="M4913 5396 c1 -11 9 -21 17 -23 10 -3 11 -2 4 4 -6 4 -14 15 -17 23
-5 11 -6 9 -4 -4z"/>
<path d="M4320 5380 c0 -5 5 -10 11 -10 5 0 7 5 4 10 -3 6 -8 10 -11 10 -2 0
-4 -4 -4 -10z"/>
<path d="M4896 5347 c3 -10 9 -15 12 -12 3 3 0 11 -7 18 -10 9 -11 8 -5 -6z"/>
<path d="M4337 5297 c-3 -7 -2 -19 3 -26 5 -10 8 -9 13 2 3 7 2 19 -3 26 -5
10 -8 9 -13 -2z"/>
<path d="M4940 5300 c0 -5 5 -10 10 -10 6 0 10 5 10 10 0 6 -4 10 -10 10 -5 0
-10 -4 -10 -10z"/>
<path d="M4292 5267 c-15 -17 -20 -126 -7 -130 5 -2 -15 -2 -45 0 -54 5 -110
-8 -110 -25 0 -8 68 -10 330 -12 37 0 50 -3 40 -9 -8 -6 -104 -10 -214 -11
-190 0 -201 -2 -223 -22 -12 -11 -21 -24 -19 -27 2 -3 37 -5 78 -4 54 2 69 -1
58 -8 -12 -9 -11 -9 5 -3 27 10 66 8 74 -4 3 -5 15 -11 26 -13 18 -4 21 -15
27 -99 11 -146 15 -154 17 -40 1 88 4 102 15 88 8 -11 20 -15 34 -11 24 6 28
24 11 55 -13 23 -8 31 14 22 9 -3 13 -12 10 -20 -6 -17 24 -8 45 13 16 16 37
17 63 3 15 -9 19 -7 19 5 0 13 4 14 20 5 11 -6 26 -8 32 -4 7 4 8 3 4 -5 -14
-22 26 -25 44 -3 10 12 21 17 26 12 6 -6 22 -6 39 -1 22 5 37 3 54 -8 19 -12
25 -13 29 -3 3 9 16 0 37 -24 l33 -37 -3 -145 c-3 -132 -2 -143 13 -137 9 4
25 9 34 12 29 8 34 44 9 64 -11 9 -21 20 -21 24 0 4 7 2 15 -5 8 -7 15 -9 15
-5 0 4 7 2 16 -6 13 -10 17 -10 24 0 12 21 0 54 -15 41 -18 -15 -21 6 -20 144
0 86 3 120 13 123 7 3 10 -1 6 -11 -4 -11 -1 -16 10 -16 26 0 19 17 -31 70
-36 38 -52 49 -70 46 -13 -3 -126 -6 -252 -7 -238 -2 -256 0 -256 40 0 11 -10
20 -44 38 -1 1 1 8 5 15 19 31 7 61 -14 35z m390 -167 c26 0 15 -13 -14 -17
-30 -5 -51 4 -43 18 4 6 14 8 22 5 8 -3 24 -6 35 -6z m148 -10 c0 -11 -108
-12 -115 0 -4 7 7 8 33 4 24 -4 42 -2 46 4 7 12 36 5 36 -8z m-220 0 c0 -12
-24 -12 -60 0 -21 7 -19 8 18 9 23 1 42 -3 42 -9z"/>
<path d="M3773 5152 c-3 -12 -9 -20 -13 -17 -5 3 -11 2 -14 -3 -5 -9 -84 -7
-123 3 -12 3 -24 1 -27 -4 -3 -5 -31 -7 -61 -4 -36 3 -55 1 -55 -6 0 -7 65
-11 208 -11 114 0 232 0 262 -1 96 -1 129 3 141 17 9 11 -12 13 -130 12 -124
-1 -143 1 -161 17 -20 18 -21 18 -27 -3z"/>
<path d="M3408 5123 c7 -3 16 -2 19 1 4 3 -2 6 -13 5 -11 0 -14 -3 -6 -6z"/>
<path d="M135 5111 l-70 -6 67 -9 c37 -4 73 -15 79 -22 20 -24 41 -17 37 14
-3 31 -8 32 -113 23z"/>
<path d="M517 5113 c-17 -16 -3 -23 46 -21 52 1 52 1 22 14 -34 15 -58 17 -68
7z"/>
<path d="M310 5100 c0 -5 5 -10 11 -10 5 0 7 5 4 10 -3 6 -8 10 -11 10 -2 0
-4 -4 -4 -10z"/>
<path d="M665 5100 c28 -12 37 -12 30 0 -3 6 -16 10 -28 9 -21 0 -21 -1 -2 -9z"/>
<path d="M715 5100 c-3 -5 2 -11 12 -11 50 -3 76 -9 89 -20 17 -14 19 -12 28
19 7 21 5 22 -58 22 -36 0 -68 -4 -71 -10z"/>
<path d="M915 5100 c-3 -5 3 -10 15 -10 12 0 18 5 15 10 -3 6 -10 10 -15 10
-5 0 -12 -4 -15 -10z"/>
<path d="M987 5099 c10 -9 28 -12 82 -10 62 1 47 10 -27 14 -34 2 -59 0 -55
-4z"/>
<path d="M1174 5091 c3 -5 15 -7 26 -4 28 7 25 13 -6 13 -14 0 -23 -4 -20 -9z"/>
<path d="M1232 5094 c4 -3 39 -10 79 -15 40 -5 80 -16 89 -24 16 -15 19 -14
28 14 l11 31 -106 0 c-59 0 -104 -3 -101 -6z"/>
<path d="M1735 5091 l-60 -7 80 -7 c44 -4 95 -9 113 -12 23 -3 32 0 32 11 0 9
-11 14 -32 14 -18 0 -42 2 -53 4 -11 2 -47 0 -80 -3z"/>
<path d="M1942 5091 c-14 -8 -7 -57 9 -67 10 -6 40 56 33 68 -7 10 -26 10 -42
-1z"/>
<path d="M1488 5078 c8 -8 17 -8 34 0 22 10 21 11 -11 11 -27 1 -32 -2 -23
-11z"/>
<path d="M1563 5083 c9 -2 23 -2 30 0 6 3 -1 5 -18 5 -16 0 -22 -2 -12 -5z"/>
<path d="M1623 5083 c9 -2 23 -2 30 0 6 3 -1 5 -18 5 -16 0 -22 -2 -12 -5z"/>
<path d="M2070 5075 c0 -6 80 -11 215 -12 173 -1 221 -5 247 -17 40 -20 38
-21 38 12 l0 28 -250 0 c-160 -1 -250 -5 -250 -11z"/>
<path d="M2600 5065 c0 -14 2 -25 4 -25 2 0 6 11 8 25 3 14 1 25 -3 25 -5 0
-9 -11 -9 -25z"/>
<path d="M2652 5071 c2 -11 36 -14 175 -13 176 1 302 -12 304 -32 1 -6 2 -15
4 -21 1 -5 3 -18 3 -27 3 -27 18 -22 30 10 15 38 23 92 14 92 -4 0 -125 1
-270 3 -219 2 -262 0 -260 -12z"/>
<path d="M3251 5075 c-4 -5 -11 -18 -14 -27 -5 -14 -1 -16 26 -11 30 5 346 4
394 -1 13 -1 36 -17 52 -35 l29 -33 16 31 c9 17 17 34 17 38 1 12 20 33 30 33
5 0 9 -8 9 -19 0 -23 29 -49 38 -34 4 6 36 10 70 9 56 -1 68 2 95 26 l32 27
-110 1 c-60 0 -238 2 -393 3 -180 1 -286 -2 -291 -8z"/>
<path d="M4985 4993 c0 -20 -6 -38 -12 -40 -7 -3 -13 3 -13 13 0 9 -3 15 -6
11 -12 -11 21 -67 39 -67 14 0 17 5 12 19 -7 23 30 51 38 28 2 -6 7 -9 10 -6
4 3 -10 22 -31 42 l-37 36 0 -36z"/>
<path d="M4374 4909 c-3 -6 0 -15 7 -20 14 -8 32 9 23 23 -7 11 -22 10 -30 -3z"/>
<path d="M3740 4890 c0 -5 5 -10 10 -10 6 0 10 5 10 10 0 6 -4 10 -10 10 -5 0
-10 -4 -10 -10z"/>
<path d="M4992 4850 c0 -19 2 -27 5 -17 2 9 2 25 0 35 -3 9 -5 1 -5 -18z"/>
<path d="M4369 4865 c-3 -28 0 -117 4 -122 4 -3 2 -15 -4 -26 -9 -15 -8 -18 2
-12 9 6 11 0 6 -23 -4 -18 -2 -44 4 -58 11 -30 3 -46 -12 -24 -9 12 -9 11 -4
-5 4 -11 11 -35 17 -52 19 -69 28 -31 27 123 0 146 -9 204 -31 204 -4 0 -8 -2
-9 -5z"/>
<path d="M4990 4790 c0 -11 4 -20 9 -20 5 0 7 9 4 20 -3 11 -7 20 -9 20 -2 0
-4 -9 -4 -20z"/>
<path d="M4991 4744 c0 -11 3 -14 6 -6 3 7 2 16 -1 19 -3 4 -6 -2 -5 -13z"/>
<path d="M4323 4695 c0 -33 2 -45 4 -27 2 18 2 45 0 60 -2 15 -4 0 -4 -33z"/>
<path d="M4990 4664 c0 -10 -3 -39 -6 -64 -5 -36 -8 -41 -15 -25 -9 23 -13
-34 -10 -152 1 -44 -3 -73 -9 -73 -9 0 -15 31 -11 54 7 34 -5 235 -14 244 -2
3 -22 -3 -44 -12 l-39 -18 4 -62 c4 -74 10 -143 18 -216 11 -103 13 -159 6
-170 -4 -7 -4 -28 1 -49 5 -20 9 -82 10 -138 l1 -103 33 0 c24 0 35 5 38 18 4
16 5 16 6 0 1 -13 9 -18 29 -18 l29 0 -1 96 c-1 80 -4 97 -19 105 -10 6 -17
21 -17 37 l1 27 14 -25 c8 -14 15 -20 16 -15 0 6 1 133 1 284 0 175 -4 277
-11 284 -7 7 -10 4 -11 -9z m-5 -162 c2 -23 1 -42 -3 -42 -5 0 -9 21 -11 47
-3 57 6 54 14 -5z m-25 -256 c0 -47 -3 -87 -7 -89 -5 -3 -9 35 -10 84 0 49 3
89 8 89 5 0 9 -38 9 -84z m2 -128 c7 -19 -3 -58 -14 -58 -6 0 -7 11 -4 25 4
15 2 25 -4 25 -6 0 -8 5 -5 10 8 14 22 13 27 -2z m-2 -120 c0 -23 -3 -38 -7
-34 -5 4 -8 23 -8 42 0 19 3 34 8 34 4 0 7 -19 7 -42z m-4 -75 c-10 -10 -19 5
-10 18 6 11 8 11 12 0 2 -7 1 -15 -2 -18z"/>
<path d="M4956 4654 c-4 -9 -4 -19 -1 -22 2 -3 7 3 11 12 4 9 4 19 1 22 -2 3
-7 -3 -11 -12z"/>
<path d="M3144 4588 c-3 -5 -13 -7 -22 -4 -10 3 -35 -5 -57 -18 -52 -30 -73
-84 -86 -225 -12 -134 -14 -139 -53 -155 -20 -8 -39 -27 -50 -49 -12 -27 -33
-45 -79 -69 -63 -33 -81 -57 -123 -155 l-14 -33 38 0 c42 0 32 -8 468 390 264
241 240 214 220 245 -9 14 -25 28 -34 31 -9 3 -37 15 -61 26 -45 21 -138 31
-147 16z"/>
<path d="M4326 4483 c-4 -9 -5 -18 -2 -20 8 -8 56 10 56 21 0 18 -47 18 -54
-1z"/>
<path d="M2592 4470 c-9 -15 -10 -26 -1 -41 13 -26 18 -21 24 25 5 40 -4 46
-23 16z"/>
<path d="M3770 4479 c0 -5 -4 -8 -9 -5 -9 6 -22 -40 -13 -48 2 -3 13 -1 23 5
20 10 27 59 9 59 -5 0 -10 -5 -10 -11z"/>
<path d="M3370 4427 c-25 -22 -77 -70 -115 -106 -39 -36 -162 -149 -273 -251
l-203 -185 44 -3 c35 -2 86 14 262 82 120 46 227 94 238 104 12 13 22 39 25
71 3 35 11 56 28 72 28 26 41 20 24 -10 -15 -29 -4 -26 16 4 15 23 15 26 0 41
-13 13 -16 29 -11 82 3 37 10 71 15 76 12 12 13 53 2 60 -4 2 -27 -14 -52 -37z"/>
<path d="M4374 4424 c3 -8 1 -14 -3 -14 -5 0 -11 6 -14 13 -2 6 -8 8 -13 4 -7
-7 7 -22 29 -29 4 -2 9 -30 10 -64 2 -33 7 -65 10 -71 4 -7 3 -14 -2 -18 -6
-3 -7 -15 -2 -28 5 -13 7 -47 6 -77 -9 -149 -4 -230 13 -249 17 -18 28 -6 12
14 -7 8 -9 15 -4 15 5 0 8 100 6 222 -3 299 -2 293 -30 294 -16 1 -21 -3 -18
-12z"/>
<path d="M4315 4410 c-3 -5 -1 -10 4 -10 6 0 11 5 11 10 0 6 -2 10 -4 10 -3 0
-8 -4 -11 -10z"/>
<path d="M4317 4384 c-9 -9 4 -34 18 -34 7 0 15 9 18 20 4 14 0 20 -12 20 -10
0 -20 -3 -24 -6z"/>
<path d="M3782 4281 c2 -9 13 -17 26 -19 16 -3 22 2 22 16 0 14 -7 20 -25 20
-19 0 -25 -5 -23 -17z"/>
<path d="M260 4260 c0 -5 5 -10 11 -10 5 0 7 5 4 10 -3 6 -8 10 -11 10 -2 0
-4 -4 -4 -10z"/>
<path d="M2611 4234 c0 -11 3 -14 6 -6 3 7 2 16 -1 19 -3 4 -6 -2 -5 -13z"/>
<path d="M3762 4097 c1 -20 6 -37 10 -37 4 0 5 15 1 33 -8 46 -14 48 -11 4z"/>
<path d="M4330 4070 c0 -23 5 -40 11 -40 6 0 8 -7 5 -16 -7 -19 4 -94 14 -94
4 0 4 19 -1 42 -8 31 -7 44 3 50 10 8 10 11 1 15 -7 2 -13 20 -13 38 0 18 6
36 13 38 6 3 2 6 -10 6 -20 1 -23 -4 -23 -39z"/>
<path d="M5460 4080 c0 -5 4 -10 9 -10 6 0 13 5 16 10 3 6 -1 10 -9 10 -9 0
-16 -4 -16 -10z"/>
<path d="M1420 4059 c0 -5 5 -7 10 -4 6 3 10 8 10 11 0 2 -4 4 -10 4 -5 0 -10
-5 -10 -11z"/>
<path d="M5478 4048 c0 -13 -1 -29 -1 -35 1 -7 -3 -10 -8 -7 -5 3 -9 0 -9 -5
0 -6 4 -11 9 -11 6 0 9 -24 8 -52 l-2 -53 49 -3 c26 -2 46 0 45 5 -2 4 -19 47
-38 96 -34 87 -50 107 -53 65z"/>
<path d="M2042 4028 c2 -13 8 -23 13 -23 6 0 11 10 13 23 2 15 -2 22 -13 22
-11 0 -15 -7 -13 -22z"/>
<path d="M3120 3954 c-74 -29 -144 -58 -155 -63 -13 -7 45 -10 178 -10 l199
-1 -37 51 c-29 40 -34 53 -24 65 21 25 -19 15 -161 -42z"/>
<path d="M2626 3930 c-42 -46 -43 -50 -16 -50 13 0 27 14 40 41 12 23 19 43
17 45 -2 3 -21 -14 -41 -36z"/>
<path d="M2000 3952 c0 -5 7 -9 15 -9 8 0 15 4 15 9 0 4 -7 8 -15 8 -8 0 -15
-4 -15 -8z"/>
<path d="M3760 3902 c0 -14 6 -22 16 -22 14 0 15 3 3 18 -7 9 -15 19 -16 21
-2 2 -3 -5 -3 -17z"/>
<path d="M2577 3843 c-13 -22 -18 -169 -8 -230 28 -165 34 -191 53 -248 11
-33 24 -65 29 -71 5 -5 8 -71 8 -146 0 -124 4 -184 17 -246 l4 -22 448 2 447
3 3 22 c2 14 -3 23 -17 28 -12 3 -21 15 -21 25 0 10 -5 22 -11 25 -5 4 -8 12
-6 18 2 7 -1 23 -8 37 -7 14 -17 43 -21 65 -7 30 -14 41 -30 43 -20 3 -22 11
-28 150 -4 81 -14 187 -22 237 l-15 90 35 32 c20 18 45 33 57 33 12 0 23 8 26
20 3 11 10 20 15 20 5 0 18 22 29 49 12 27 30 53 42 59 20 10 20 11 -9 11 -18
1 -52 -10 -75 -24 -54 -31 -66 -31 -97 -2 -24 22 -24 22 -432 25 -224 2 -410
0 -413 -5z m461 -310 l-3 -38 -107 -3 -108 -3 0 -39 0 -40 95 0 95 0 0 -40 0
-40 -95 0 -95 0 0 -50 0 -50 111 0 110 0 -3 -37 -3 -38 -150 0 -150 0 -3 195
c-1 107 0 200 2 207 4 10 43 13 156 13 l151 0 -3 -37z m191 -95 c42 -70 78
-128 81 -128 3 0 5 57 5 127 l0 128 43 3 42 3 -2 -208 -3 -208 -40 0 -40 0
-82 135 -83 134 0 -137 0 -137 -40 2 -40 1 0 209 0 209 42 -3 42 -3 75 -127z"/>
<path d="M4888 3833 c0 -10 -2 -73 -3 -140 l-1 -123 73 0 c64 0 73 2 73 18 0
28 -11 34 -26 14 -7 -9 -14 -12 -14 -6 0 6 7 17 15 24 17 14 21 35 5 25 -6 -4
-10 5 -10 19 0 14 5 26 10 26 6 0 10 5 10 11 0 6 -7 9 -15 5 -8 -3 -15 -1 -15
4 0 6 7 10 15 10 12 0 15 14 15 65 l0 65 -30 0 c-17 0 -30 -5 -30 -12 0 -9 -4
-8 -10 2 -9 13 -11 13 -21 0 -8 -11 -12 -12 -16 -2 -7 18 -23 15 -25 -5z m82
-55 c0 -5 -4 -8 -10 -8 -5 0 -10 10 -10 23 0 18 2 19 10 7 5 -8 10 -18 10 -22z
m34 -4 c3 -8 2 -12 -4 -9 -6 3 -10 10 -10 16 0 14 7 11 14 -7z m-38 -53 c-1
-17 -5 -26 -9 -21 -5 4 -6 17 -2 29 9 29 12 26 11 -8z m4 -61 c0 -5 -4 -10
-10 -10 -5 0 -10 5 -10 10 0 6 5 10 10 10 6 0 10 -4 10 -10z"/>
<path d="M5480 3846 c0 -3 5 -17 10 -31 7 -18 7 -33 -1 -47 -6 -11 -7 -23 -3
-27 5 -3 10 -37 11 -75 2 -53 -1 -72 -13 -81 -15 -10 -15 -13 1 -29 15 -15 16
-23 7 -53 -9 -29 -8 -40 5 -59 11 -18 12 -28 5 -37 -12 -14 -5 -57 8 -57 4 0
3 -18 -2 -40 -7 -28 -7 -44 0 -53 11 -13 9 -97 -2 -116 -4 -5 -2 -12 4 -16 6
-3 9 -23 8 -43 -1 -20 -1 -72 0 -114 l2 -78 30 0 30 0 0 480 0 480 -50 0 c-27
0 -50 -2 -50 -4z"/>
<path d="M3774 3825 c-3 -8 -4 -20 -2 -27 3 -7 7 -1 10 15 6 29 1 36 -8 12z"/>
<path d="M4385 3779 c4 -30 7 -62 7 -71 0 -10 4 -20 9 -23 5 -4 6 -12 2 -18
-12 -20 -11 -51 1 -72 21 -33 26 -64 10 -58 -10 4 -14 -3 -14 -21 0 -22 -4
-26 -30 -26 -25 0 -30 -4 -30 -24 0 -19 4 -23 20 -19 11 3 18 9 15 13 -3 4 1
10 8 13 12 4 12 -2 8 -130 -1 -16 -6 -21 -16 -17 -8 4 -15 1 -15 -5 0 -6 10
-11 22 -11 l22 0 -22 -20 c-23 -22 -30 -60 -11 -60 6 0 9 7 5 15 -8 22 7 18
22 -5 7 -11 18 -17 27 -14 19 8 18 139 -2 169 -16 24 -17 79 -1 108 7 14 10
62 8 132 -5 163 -6 180 -16 180 -5 0 -15 4 -23 9 -11 7 -12 -1 -6 -45z"/>
<path d="M4350 3804 c0 -8 5 -12 10 -9 6 4 8 11 5 16 -9 14 -15 11 -15 -7z"/>
<path d="M3766 3755 c-3 -9 0 -15 8 -15 7 0 13 7 13 15 0 8 -4 15 -8 15 -4 0
-9 -7 -13 -15z"/>
<path d="M2000 3675 c0 -8 9 -15 20 -15 11 0 20 7 20 15 0 8 -9 15 -20 15 -11
0 -20 -7 -20 -15z"/>
<path d="M1468 3640 c-7 -24 -3 -38 8 -28 3 4 4 17 2 30 l-3 23 -7 -25z"/>
<path d="M3759 3593 c0 -32 -1 -73 -2 -91 0 -19 4 -37 10 -40 6 -4 13 -16 15
-27 3 -11 5 8 6 43 1 40 -2 62 -10 62 -6 0 -3 10 8 22 10 12 13 18 7 14 -7 -4
-13 -3 -13 3 0 5 5 11 11 13 12 4 -8 58 -22 58 -5 0 -9 -26 -10 -57z"/>
<path d="M4341 3614 c0 -11 3 -14 6 -6 3 7 2 16 -1 19 -3 4 -6 -2 -5 -13z"/>
<path d="M4350 3580 c0 -5 5 -10 11 -10 5 0 7 5 4 10 -3 6 -8 10 -11 10 -2 0
-4 -4 -4 -10z"/>
<path d="M4885 3453 c1 -36 2 -36 60 -53 33 -9 65 -19 70 -22 6 -4 11 17 13
53 l2 59 -73 0 -73 0 1 -37z"/>
<path d="M5445 3430 c-10 -11 -16 -22 -13 -25 3 -3 13 4 23 15 10 11 16 22 13
25 -3 3 -13 -4 -23 -15z"/>
<path d="M4350 3419 c0 -5 5 -7 10 -4 6 3 10 8 10 11 0 2 -4 4 -10 4 -5 0 -10
-5 -10 -11z"/>
<path d="M3782 3380 c0 -14 2 -19 5 -12 2 6 2 18 0 25 -3 6 -5 1 -5 -13z"/>
<path d="M1477 3323 c-4 -3 -7 -11 -7 -17 0 -6 5 -5 12 2 6 6 9 14 7 17 -3 3
-9 2 -12 -2z"/>
<path d="M4890 3275 c0 -43 1 -45 29 -45 40 0 64 25 50 51 -9 18 -47 39 -70
39 -5 0 -9 -20 -9 -45z"/>
<path d="M280 3280 c0 -19 3 -21 12 -12 9 9 9 15 0 24 -9 9 -12 7 -12 -12z"/>
<path d="M1986 3271 c-4 -7 -5 -15 -2 -18 9 -9 19 4 14 18 -4 11 -6 11 -12 0z"/>
<path d="M4995 3164 c-16 -7 -46 -13 -65 -14 l-35 0 2 -127 3 -128 67 0 68 0
0 122 c0 159 -1 163 -40 147z"/>
<path d="M3785 3153 c3 -12 1 -24 -5 -28 -13 -8 -13 -35 1 -35 6 0 8 7 5 16
-4 11 -2 15 8 11 16 -7 15 10 -2 38 -13 19 -13 19 -7 -2z"/>
<path d="M4388 3152 l-27 -3 -3 -102 c-5 -153 -3 -157 42 -157 47 0 46 -2 42
145 -3 120 -5 123 -54 117z m19 -124 c-3 -8 -6 -5 -6 6 -1 11 2 17 5 13 3 -3
4 -12 1 -19z"/>
<path d="M3786 3001 c-4 -5 -2 -12 4 -16 5 -3 10 -17 10 -31 0 -14 -4 -22 -10
-19 -6 4 -9 -5 -8 -19 2 -17 8 -26 19 -26 13 0 16 7 13 29 -3 16 -1 32 4 35
11 7 25 -21 17 -34 -3 -5 -1 -11 5 -15 6 -4 10 5 10 19 0 15 -8 31 -20 38 -11
7 -20 18 -20 25 0 16 -17 26 -24 14z"/>
<path d="M78 2973 c-70 -3 -78 -6 -78 -23 0 -19 8 -20 121 -20 119 0 120 0
117 23 -3 25 -18 26 -160 20z"/>
<path d="M586 2904 c-10 -27 -7 -44 9 -44 17 0 20 -16 5 -25 -5 -3 -10 -14
-10 -23 0 -15 2 -15 10 -2 8 13 11 13 24 0 13 -13 13 -22 1 -75 -17 -71 -20
-129 -5 -104 5 9 17 48 26 85 18 79 27 94 59 94 25 0 39 23 36 58 -1 12 2 21
7 20 10 -3 12 1 12 22 0 6 -35 10 -84 10 -67 0 -85 -3 -90 -16z"/>
<path d="M1987 2893 c-12 -11 -8 -23 8 -23 8 0 15 7 15 15 0 16 -12 20 -23 8z"/>
<path d="M2683 2809 c4 -29 8 -53 10 -55 7 -8 267 91 267 101 0 3 -64 5 -141
5 l-142 0 6 -51z"/>
<path d="M2880 2792 c-163 -63 -175 -70 -178 -95 -3 -28 0 -30 50 -41 19 -4
28 -14 33 -36 4 -16 9 -30 12 -30 6 0 154 133 248 222 68 65 49 62 -165 -20z"/>
<path d="M3030 2765 c-58 -52 -106 -98 -108 -103 -2 -7 168 -96 173 -90 2 2
35 67 74 146 l71 142 -52 0 c-53 0 -54 -1 -158 -95z"/>
<path d="M3227 2784 c-21 -42 -35 -80 -30 -84 4 -4 45 -10 90 -13 l81 -6 6 47
c3 26 7 65 8 87 l3 40 -60 3 -60 3 -38 -77z"/>
<path d="M3410 2850 c0 -13 40 -13 60 0 11 7 5 10 -22 10 -21 0 -38 -4 -38
-10z"/>
<path d="M3538 2834 c-15 -25 -17 -100 -5 -202 8 -61 16 -114 19 -117 3 -3 22
13 42 35 31 35 36 47 36 91 0 33 -9 68 -25 102 -28 61 -60 103 -67 91z"/>
<path d="M3445 2816 c-42 -14 -37 -20 23 -30 17 -3 32 -1 32 3 0 5 3 16 6 25
7 19 -6 19 -61 2z"/>
<path d="M3400 2731 c0 -37 2 -41 25 -41 36 0 42 -37 15 -96 l-22 -48 22 -18
c24 -20 47 -23 68 -9 12 7 12 27 2 120 -7 61 -16 113 -20 116 -4 2 -26 7 -48
11 l-42 7 0 -42z"/>
<path d="M3170 2666 c0 -2 16 -14 36 -27 36 -22 37 -22 50 -4 22 30 17 35 -36
35 -27 0 -50 -2 -50 -4z"/>
<path d="M3278 2628 c-22 -44 -298 -1065 -298 -1104 0 -96 37 -208 71 -217 21
-6 71 -110 63 -131 -3 -8 0 -17 5 -21 8 -4 9 -32 5 -84 -4 -48 -3 -85 4 -97 8
-14 6 -21 -6 -30 -13 -9 -8 -15 31 -39 66 -38 129 -55 229 -62 101 -7 118 1
118 53 0 27 -11 45 -52 89 -28 30 -62 73 -75 95 -13 21 -37 52 -53 69 -17 16
-30 39 -30 50 0 12 -9 30 -19 40 -31 31 -44 90 -26 118 19 28 19 47 0 63 -9 8
-12 22 -8 40 3 16 -2 48 -10 72 -9 24 -19 72 -22 106 -3 35 -11 76 -16 90 -9
23 -7 30 12 45 17 14 25 34 30 79 4 33 13 64 19 68 9 6 9 9 -1 13 -8 3 -4 6 9
6 23 1 23 3 17 67 -3 38 -1 89 6 122 11 55 43 131 59 142 12 7 42 276 38 335
l-3 50 -40 3 c-36 3 -42 0 -57 -30z m-26 -660 c-9 -9 -12 -7 -12 12 0 19 3 21
12 12 9 -9 9 -15 0 -24z"/>
<path d="M840 2634 c0 -8 5 -12 10 -9 6 4 8 11 5 16 -9 14 -15 11 -15 -7z"/>
<path d="M2899 2623 c6 -10 19 -28 30 -41 17 -20 23 -21 40 -10 12 7 21 15 21
18 0 6 -85 50 -96 50 -2 0 0 -8 5 -17z"/>
<path d="M3141 2613 c-7 -16 -19 -38 -27 -51 l-15 -22 -39 20 -39 20 -43 -33
c-24 -18 -59 -56 -79 -85 l-37 -52 23 -75 c16 -52 25 -110 28 -190 l5 -114
-39 -50 c-21 -27 -39 -54 -39 -60 0 -14 -51 -115 -79 -156 -12 -16 -21 -42
-21 -56 0 -15 -6 -32 -13 -38 -8 -6 -13 -27 -12 -48 1 -21 -7 -60 -18 -88 -10
-27 -20 -57 -21 -65 -4 -28 -27 -60 -42 -60 -18 0 -86 -138 -80 -162 2 -10 0
-18 -5 -18 -5 0 -9 -6 -9 -14 0 -7 28 -28 63 -46 82 -42 157 -90 157 -101 0
-5 -10 -9 -22 -10 -16 0 -9 -5 20 -16 24 -8 44 -13 46 -12 10 15 58 183 63
219 4 40 2 46 -18 55 -40 18 -44 37 -18 90 13 26 39 60 56 74 18 14 33 32 33
39 0 6 4 12 8 12 18 0 43 81 202 675 33 121 71 259 84 308 l24 87 -36 25 c-20
14 -39 25 -43 25 -3 0 -11 -12 -18 -27z m-491 -1437 c0 -9 -37 6 -60 25 -24
19 -24 19 18 -1 23 -11 42 -22 42 -24z"/>
<path d="M2832 2587 c-22 -24 -29 -61 -13 -71 4 -3 11 -20 15 -37 8 -39 22
-34 63 22 l32 45 -25 32 c-30 38 -43 40 -72 9z"/>
<path d="M282 2560 c0 -14 2 -19 5 -12 2 6 2 18 0 25 -3 6 -5 1 -5 -13z"/>
<path d="M586 2533 c-3 -21 -9 -49 -13 -62 -4 -15 -2 -22 4 -18 6 4 14 26 18
49 4 24 9 49 11 56 1 6 -1 12 -6 12 -4 0 -10 -17 -14 -37z"/>
<path d="M287 2523 c-4 -3 -7 -14 -7 -23 0 -20 -69 -30 -201 -30 -77 0 -79 -1
-79 -24 l0 -24 133 -2 c72 0 139 -1 147 -2 8 -1 41 0 73 0 54 2 58 4 55 25 -2
18 -10 23 -48 25 -52 4 -73 18 -65 43 7 20 3 24 -8 12z"/>
<path d="M430 2458 c0 -7 4 -19 9 -27 11 -17 25 3 17 24 -7 18 -26 20 -26 3z"/>
<path d="M563 2425 c-7 -20 2 -29 21 -22 9 4 13 13 10 22 -8 19 -23 19 -31 0z"/>
<path d="M554 2372 c-16 -10 -29 -128 -15 -137 7 -3 11 -3 10 2 -4 22 3 43 21
64 l20 24 20 -25 20 -25 -9 26 c-6 17 -6 30 0 36 17 17 -2 43 -30 43 -14 0
-31 -4 -37 -8z"/>
<path d="M251 2318 c-4 -13 -9 -89 -10 -171 0 -81 -2 -152 -4 -159 -2 -13 49
-35 59 -25 4 3 3 49 -1 102 -5 72 -10 95 -21 95 -8 0 -14 10 -14 23 1 20 2 20
11 4 6 -9 14 -15 20 -12 11 7 12 78 2 89 -5 4 -8 22 -8 38 0 38 -22 48 -34 16z
m29 -238 c0 -5 -2 -10 -4 -10 -3 0 -8 5 -11 10 -3 6 -1 10 4 10 6 0 11 -4 11
-10z"/>
<path d="M2042 2309 c1 -13 8 -23 13 -21 15 3 12 35 -3 40 -9 3 -13 -3 -10
-19z"/>
<path d="M1982 2257 c1 -16 7 -23 16 -20 16 7 12 35 -5 40 -8 3 -12 -4 -11
-20z"/>
<path d="M645 2243 c8 -18 18 -33 20 -33 10 0 4 16 -16 40 l-20 25 16 -32z"/>
<path d="M2611 2196 c-11 -13 -10 -17 3 -22 22 -8 30 1 19 21 -9 15 -11 15
-22 1z"/>
<path d="M516 2189 c-8 -22 -75 -364 -76 -384 0 -5 -4 -16 -9 -24 -7 -11 -14
-11 -41 3 -25 12 -36 13 -46 5 -26 -22 1 -46 59 -52 30 -4 74 -14 98 -22 50
-18 69 -14 69 15 0 16 -7 20 -37 20 -21 0 -44 4 -50 8 -16 10 -11 102 12 227
31 171 36 208 31 213 -3 3 -8 -1 -10 -9z"/>
<path d="M735 2086 c36 -62 65 -118 65 -123 0 -6 9 -18 20 -28 18 -17 90 -135
90 -149 0 -12 -36 -6 -58 10 -29 20 -39 11 -23 -20 11 -20 25 -25 99 -35 47
-7 97 -18 111 -25 32 -16 51 -11 51 15 0 18 -10 23 -37 20 -29 -4 -92 21 -106
42 -8 12 -27 36 -43 52 -16 17 -45 55 -64 85 -37 58 -41 65 -108 183 -24 42
-47 79 -52 82 -5 3 20 -46 55 -109z"/>
<path d="M5455 2190 c3 -5 8 -10 11 -10 2 0 4 5 4 10 0 6 -5 10 -11 10 -5 0
-7 -4 -4 -10z"/>
<path d="M1987 2123 c-10 -10 -8 -33 2 -33 6 0 9 9 8 20 -1 23 -1 22 -10 13z"/>
<path d="M1980 2036 c0 -24 -3 -51 -6 -60 -5 -13 1 -16 31 -16 24 0 42 -6 50
-17 15 -20 145 -33 145 -14 0 6 -6 11 -12 12 -65 3 -115 20 -130 43 -6 8 -10
7 -16 -2 -14 -21 -36 14 -37 59 0 24 -5 39 -12 39 -9 0 -13 -15 -13 -44z"/>
<path d="M838 2028 c-5 -31 8 -68 25 -68 9 0 -2 81 -13 93 -4 5 -10 -6 -12
-25z"/>
<path d="M2611 2028 c5 -44 -10 -68 -42 -68 -24 0 -30 -4 -27 -17 3 -15 14
-18 68 -18 l65 0 3 35 c3 28 1 33 -9 23 -20 -19 -29 -16 -29 11 0 13 -6 27
-12 29 -10 4 -9 8 2 16 13 9 12 11 -3 11 -13 0 -18 -6 -16 -22z"/>
<path d="M1470 2005 c-7 -8 -16 -13 -20 -10 -4 3 -10 -2 -14 -10 -3 -8 -1 -17
5 -20 5 -4 7 -11 4 -16 -4 -5 3 -9 14 -9 25 0 38 20 20 31 -11 7 -12 12 -1 29
14 23 10 27 -8 5z"/>
<path d="M660 1950 c-12 -8 -12 -10 2 -15 26 -10 43 -2 26 12 -8 7 -19 8 -28
3z"/>
<path d="M1775 1950 c-3 -5 -1 -10 4 -10 6 0 11 5 11 10 0 6 -2 10 -4 10 -3 0
-8 -4 -11 -10z"/>
<path d="M3450 1940 c0 -6 -33 -10 -77 -10 -96 0 -127 -15 -50 -23 58 -6 257
3 257 11 0 8 -34 31 -45 32 -5 0 -3 -5 5 -10 11 -7 5 -10 -22 -10 -21 0 -38 5
-38 10 0 6 -7 10 -15 10 -8 0 -15 -4 -15 -10z"/>
<path d="M2760 1930 c20 -13 40 -13 40 0 0 6 -12 10 -27 10 -22 0 -25 -2 -13
-10z"/>
<path d="M5860 1859 c0 -5 5 -7 10 -4 6 3 10 8 10 11 0 2 -4 4 -10 4 -5 0 -10
-5 -10 -11z"/>
<path d="M5890 1866 c0 -2 7 -6 15 -10 8 -3 15 -1 15 4 0 6 -7 10 -15 10 -8 0
-15 -2 -15 -4z"/>
<path d="M5925 1830 c-3 -5 -2 -10 4 -10 5 0 13 5 16 10 3 6 2 10 -4 10 -5 0
-13 -4 -16 -10z"/>
<path d="M6038 1803 c7 -3 16 -2 19 1 4 3 -2 6 -13 5 -11 0 -14 -3 -6 -6z"/>
<path d="M270 1699 c0 -14 71 -22 83 -10 6 6 7 11 2 12 -6 0 -27 1 -47 3 -21
2 -38 -1 -38 -5z"/>
<path d="M2858 1113 c-15 -48 -25 -89 -23 -92 3 -2 49 -5 103 -5 94 -1 97 0
100 22 3 16 -8 34 -40 63 -24 21 -57 53 -74 69 -16 17 -32 30 -35 30 -2 0 -16
-39 -31 -87z"/>
</g>
</svg>
